<svg id="Capa_1" enable-background="new 0 0 512 512" height="512" viewBox="0 0 512 512" width="512" xmlns="http://www.w3.org/2000/svg"><g><path d="m482 222h-452c-16.569 0-30 13.431-30 30 0 16.569 13.431 30 30 30h452c16.569 0 30-13.431 30-30 0-16.569-13.431-30-30-30z"/><path d="m256 190c52.383 0 95-42.617 95-95s-42.617-95-95-95-95 42.617-95 95 42.617 95 95 95zm-30-110h15v-15c0-8.284 6.716-15 15-15s15 6.716 15 15v15h15c8.284 0 15 6.716 15 15s-6.716 15-15 15h-15v15c0 8.284-6.716 15-15 15s-15-6.716-15-15v-15h-15c-8.284 0-15-6.716-15-15s6.716-15 15-15z"/><path d="m72.169 463.522c7.123 28.491 32.722 48.478 62.089 48.478h243.484c29.368 0 54.967-19.987 62.089-48.478l37.881-151.522h-443.424zm280.747-13.748 12-80c1.228-8.192 8.858-13.841 17.06-12.608 8.192 1.229 13.837 8.866 12.608 17.06l-12 80c-1.115 7.438-7.516 12.776-14.815 12.776-.74 0-1.489-.055-2.244-.168-8.193-1.229-13.837-8.866-12.609-17.06zm-70.647-78.523c.414-8.274 7.438-14.63 15.73-14.232 8.274.414 14.646 7.457 14.232 15.73l-4 80c-.401 8.019-7.029 14.251-14.968 14.251-.253 0-.506-.006-.762-.019-8.274-.414-14.646-7.457-14.232-15.73zm-68.268-14.232c8.278-.414 15.317 5.959 15.73 14.232l4 80c.414 8.273-5.958 15.316-14.232 15.73-.255.013-.509.019-.761.019-7.94 0-14.568-6.232-14.969-14.251l-4-80c-.414-8.273 5.958-15.316 14.232-15.73zm-83.976.147c8.195-1.23 15.831 4.416 17.059 12.608l12 80c1.229 8.193-4.417 15.831-12.609 17.06-.754.113-1.504.168-2.244.168-7.301 0-13.7-5.338-14.815-12.776l-12-80c-1.229-8.194 4.417-15.831 12.609-17.06z"/><path d="m510.616 113.286c3.472-7.522.188-16.434-7.333-19.905-7.523-3.472-16.434-.188-19.905 7.333l-42.133 91.286h33.041z"/><path d="m37.714 192h33.041l-42.132-91.286c-3.471-7.521-12.383-10.806-19.905-7.333-7.521 3.472-10.805 12.383-7.333 19.905z"/></g></svg>