<svg id="Capa_1" enable-background="new 0 0 512 512" height="512" viewBox="0 0 512 512" width="512" xmlns="http://www.w3.org/2000/svg"><g><path d="m451 106c0-8.293-6.709-15-15-15h-45v315c0 24.813-20.187 45-45 45h-195v46c0 8.291 6.707 15 15 15h270c8.291 0 15-6.709 15-15z"/><circle cx="271" cy="331" r="15"/><path d="m361 406v-391c0-8.293-6.709-15-15-15h-270c-8.293 0-15 6.707-15 15v391c0 8.291 6.707 15 15 15h270c8.291 0 15-6.709 15-15zm-180-90h-60c-8.293 0-15-6.709-15-15 0-8.293 6.707-15 15-15h60c8.291 0 15 6.707 15 15 0 8.291-6.709 15-15 15zm90 60c-24.814 0-45-20.187-45-45s20.186-45 45-45c24.813 0 45 20.187 45 45s-20.187 45-45 45zm30-120h-180c-8.293 0-15-6.709-15-15 0-8.293 6.707-15 15-15h180c8.291 0 15 6.707 15 15 0 8.291-6.709 15-15 15zm0-60h-180c-8.293 0-15-6.709-15-15 0-8.293 6.707-15 15-15h180c8.291 0 15 6.707 15 15 0 8.291-6.709 15-15 15zm-135-75c0-8.293 6.707-15 15-15h60c8.291 0 15 6.707 15 15 0 8.291-6.709 15-15 15h-60c-8.293 0-15-6.709-15-15zm135-45h-180c-8.293 0-15-6.707-15-15s6.707-15 15-15h180c8.291 0 15 6.707 15 15s-6.709 15-15 15z"/></g></svg>