<?xml version="1.0" encoding="iso-8859-1"?>
<!-- Generator: Adobe Illustrator 19.0.0, SVG Export Plug-In . SVG Version: 6.00 Build 0)  -->
<svg xmlns="http://www.w3.org/2000/svg" xmlns:xlink="http://www.w3.org/1999/xlink" version="1.1" id="Capa_1" x="0px" y="0px" viewBox="0 0 512.024 512.024" style="enable-background:new 0 0 512.024 512.024;" xml:space="preserve" width="512" height="512">
<g>
	<rect x="214.232" y="78.726" width="83.56" height="83.56"/>
	<path d="M376.518,241.012V0H135.506v241.012H376.518z M184.232,48.726h143.56v143.56h-143.56V48.726z"/>
	<path d="M271.012,512.024h241.012V271.012H271.012V512.024z M391.518,319.739c39.58,0,71.78,32.2,71.78,71.779   c0,39.58-32.2,71.78-71.78,71.78s-71.78-32.2-71.78-71.78C319.738,351.939,351.938,319.739,391.518,319.739z"/>
	<path d="M391.518,433.298c23.038,0,41.78-18.742,41.78-41.78c0-23.037-18.742-41.779-41.78-41.779s-41.78,18.742-41.78,41.779   C349.738,414.556,368.48,433.298,391.518,433.298z"/>
	<path d="M241.012,271.012H0v241.012h241.012V271.012z M120.506,315.526l82.987,143.737H37.519L120.506,315.526z"/>
	<polygon points="120.506,375.526 89.481,429.263 151.532,429.263  "/>
</g>















</svg>
