<?xml version="1.0" encoding="iso-8859-1"?>
<!-- Generator: Adobe Illustrator 19.0.0, SVG Export Plug-In . SVG Version: 6.00 Build 0)  -->
<svg version="1.1" id="Capa_1" xmlns="http://www.w3.org/2000/svg" xmlns:xlink="http://www.w3.org/1999/xlink" x="0px" y="0px"
	 viewBox="0 0 512.001 512.001" style="enable-background:new 0 0 512.001 512.001;" xml:space="preserve">
<g>
	<g>
		<path d="M40.166,126.401v370.6c0,8.284,6.716,15,15,15h105.5V448.8c0-8.284,6.716-15,15-15s15,6.716,15,15v63.201h120.5v-385.6
			H40.166z M146.111,371.041c-2.801,2.79-6.66,4.391-10.61,4.391c-3.95,0-7.81-1.601-10.61-4.391c-2.79-2.8-4.39-6.66-4.39-10.609
			c0.001-3.95,1.6-7.81,4.39-10.61c2.801-2.79,6.66-4.39,10.61-4.39c3.95,0,7.81,1.6,10.61,4.39c2.79,2.8,4.39,6.659,4.39,10.61
			C150.5,364.381,148.9,368.242,146.111,371.041z M146.111,290.702c-2.801,2.8-6.67,4.4-10.61,4.4c-3.95,0-7.81-1.601-10.61-4.4
			c-2.79-2.79-4.39-6.65-4.39-10.6c0.001-3.95,1.6-7.82,4.39-10.61c2.79-2.79,6.66-4.39,10.61-4.39c3.95,0,7.81,1.6,10.61,4.39
			c2.79,2.79,4.39,6.659,4.39,10.61C150.5,284.051,148.9,287.911,146.111,290.702z M146.111,210.372
			c-2.801,2.79-6.66,4.39-10.61,4.39c-3.95,0-7.81-1.6-10.61-4.39c-2.79-2.79-4.39-6.66-4.39-10.61c0.001-3.94,1.6-7.81,4.39-10.6
			c2.801-2.8,6.66-4.4,10.61-4.4c3.95,0,7.81,1.6,10.61,4.4c2.79,2.79,4.39,6.66,4.39,10.6
			C150.5,203.712,148.9,207.582,146.111,210.372z M226.442,371.041c-2.79,2.79-6.66,4.391-10.61,4.391
			c-3.95,0-7.811-1.601-10.601-4.391c-2.8-2.79-4.399-6.66-4.399-10.609c0-3.95,1.599-7.82,4.399-10.61
			c2.79-2.79,6.65-4.39,10.601-4.39c3.951,0,7.82,1.6,10.61,4.39c2.789,2.8,4.39,6.659,4.39,10.61
			C230.832,364.381,229.231,368.242,226.442,371.041z M226.442,290.702c-2.79,2.8-6.66,4.4-10.61,4.4
			c-3.95,0-7.811-1.601-10.601-4.4c-2.8-2.79-4.399-6.65-4.399-10.6s1.599-7.82,4.399-10.61c2.79-2.79,6.65-4.39,10.601-4.39
			c3.951,0,7.82,1.6,10.61,4.39c2.789,2.8,4.39,6.659,4.39,10.61C230.832,284.041,229.231,287.911,226.442,290.702z
			 M226.442,210.372c-2.801,2.79-6.66,4.4-10.61,4.4c-3.941,0-7.811-1.61-10.601-4.4c-2.8-2.79-4.399-6.66-4.399-10.61
			c0-3.95,1.599-7.81,4.399-10.6c2.79-2.79,6.65-4.4,10.601-4.4c3.951,0,7.82,1.61,10.61,4.4c2.789,2.79,4.39,6.66,4.39,10.6
			C230.832,203.712,229.231,207.582,226.442,210.372z"/>
	</g>
</g>
<g>
	<g>
		<path d="M304.576,2.579c-4.121-2.79-9.357-3.355-13.98-1.506L52.276,96.401h258.89V15C311.167,10.023,308.698,5.369,304.576,2.579
			z"/>
	</g>
</g>
<g>
	<g>
		<path d="M456.835,224.934H341.167v287.067h115.668c8.284,0,15-6.716,15-15V239.934
			C471.835,231.65,465.119,224.934,456.835,224.934z"/>
	</g>
</g>
<g>
</g>
<g>
</g>
<g>
</g>
<g>
</g>
<g>
</g>
<g>
</g>
<g>
</g>
<g>
</g>
<g>
</g>
<g>
</g>
<g>
</g>
<g>
</g>
<g>
</g>
<g>
</g>
<g>
</g>
</svg>
