<svg height="512pt" viewBox="0 -43 512 512" width="512pt" xmlns="http://www.w3.org/2000/svg"><path d="m85.332031 42.667969c0 23.5625-19.101562 42.664062-42.664062 42.664062-23.566407 0-42.667969-19.101562-42.667969-42.664062 0-23.566407 19.101562-42.667969 42.667969-42.667969 23.5625 0 42.664062 19.101562 42.664062 42.667969zm0 0"/><path d="m85.332031 213.332031c0 23.566407-19.101562 42.667969-42.664062 42.667969-23.566407 0-42.667969-19.101562-42.667969-42.667969 0-23.5625 19.101562-42.664062 42.667969-42.664062 23.5625 0 42.664062 19.101562 42.664062 42.664062zm0 0"/><path d="m85.332031 384c0 23.5625-19.101562 42.667969-42.664062 42.667969-23.566407 0-42.667969-19.105469-42.667969-42.667969s19.101562-42.667969 42.667969-42.667969c23.5625 0 42.664062 19.105469 42.664062 42.667969zm0 0"/><path d="m170.667969 64h320c11.796875 0 21.332031-9.535156 21.332031-21.332031s-9.535156-21.335938-21.332031-21.335938h-320c-11.796875 0-21.335938 9.539063-21.335938 21.335938s9.539063 21.332031 21.335938 21.332031zm0 0"/><path d="m490.667969 192h-320c-11.796875 0-21.335938 9.535156-21.335938 21.332031s9.539063 21.335938 21.335938 21.335938h320c11.796875 0 21.332031-9.539063 21.332031-21.335938s-9.535156-21.332031-21.332031-21.332031zm0 0"/><path d="m490.667969 362.667969h-320c-11.796875 0-21.335938 9.535156-21.335938 21.332031s9.539063 21.332031 21.335938 21.332031h320c11.796875 0 21.332031-9.535156 21.332031-21.332031s-9.535156-21.332031-21.332031-21.332031zm0 0"/></svg>