<svg id="Layer_1" enable-background="new 0 0 512 512" height="512" viewBox="0 0 512 512" width="512" xmlns="http://www.w3.org/2000/svg"><ellipse cx="434.129" cy="321.042" rx="77.871" ry="36.524"/><path d="m434.133 387.517c-25.089 0-49.142-4.803-67.727-13.519-3.217-1.508-6.265-3.135-9.123-4.863v34.277c8.36 10.18 34.822 23.081 76.846 23.081 42.022 0 68.483-12.9 76.845-23.079v-34.279c-2.858 1.727-5.906 3.355-9.123 4.863-18.586 8.717-42.639 13.519-67.718 13.519z"/><path d="m434.129 456.448c-27.425 0-53.442-5.119-73.26-14.414-1.225-.574-2.42-1.162-3.587-1.764v14.724c0 25.501 32.32 44.013 76.851 44.013 44.521 0 76.841-18.512 76.841-44.013v-14.723c-1.166.601-2.361 1.189-3.585 1.763-19.818 9.295-45.835 14.414-73.26 14.414z"/><ellipse cx="77.871" cy="250.663" rx="77.871" ry="36.524"/><path d="m77.875 387.517c-25.089 0-49.142-4.803-67.727-13.519-3.217-1.508-6.265-3.135-9.123-4.863v34.277c8.36 10.18 34.822 23.081 76.846 23.081 42.022 0 68.483-12.9 76.845-23.079v-34.279c-2.858 1.727-5.906 3.355-9.123 4.863-18.585 8.717-42.638 13.519-67.718 13.519z"/><path d="m77.875 317.655c-25.089 0-49.142-4.803-67.727-13.519-3.217-1.508-6.265-3.135-9.123-4.863v34.277c8.36 10.18 34.822 23.081 76.846 23.081 42.022 0 68.483-12.9 76.845-23.079v-34.279c-2.858 1.727-5.906 3.355-9.123 4.863-18.585 8.717-42.638 13.519-67.718 13.519z"/><path d="m77.871 456.448c-27.425 0-53.442-5.119-73.26-14.414-1.225-.574-2.42-1.162-3.587-1.764v14.724c0 25.501 32.32 44.013 76.851 44.013 44.521 0 76.841-18.512 76.841-44.013v-14.723c-1.166.601-2.361 1.189-3.585 1.763-19.818 9.295-45.835 14.414-73.26 14.414z"/><ellipse cx="256" cy="192.608" rx="77.871" ry="36.524"/><path d="m256.004 388.51c-25.089 0-49.142-4.803-67.727-13.519-3.217-1.508-6.265-3.135-9.123-4.863v34.277c8.36 10.18 34.822 23.081 76.846 23.081 42.022 0 68.483-12.9 76.845-23.079v-34.279c-2.858 1.727-5.906 3.355-9.123 4.863-18.585 8.716-42.639 13.519-67.718 13.519z"/><path d="m256.004 318.648c-25.089 0-49.142-4.803-67.727-13.519-3.217-1.508-6.265-3.135-9.123-4.863v34.277c8.36 10.18 34.822 23.081 76.846 23.081 42.022 0 68.483-12.9 76.845-23.079v-34.279c-2.858 1.727-5.906 3.355-9.123 4.863-18.585 8.716-42.639 13.519-67.718 13.519z"/><path d="m255.912 292.901c42.022 0 68.483-12.9 76.845-23.079v-34.279c-2.859 1.727-5.906 3.355-9.123 4.863-18.585 8.717-42.638 13.519-67.718 13.519-25.089 0-49.142-4.803-67.727-13.519-3.217-1.508-6.265-3.135-9.123-4.863v34.277c8.36 10.179 34.821 23.081 76.846 23.081z"/><path d="m256 457.441c-27.425 0-53.442-5.119-73.26-14.414-1.225-.574-2.42-1.162-3.587-1.764v14.724c0 25.501 32.32 44.013 76.851 44.013 44.521 0 76.841-18.512 76.841-44.013v-14.723c-1.166.601-2.361 1.189-3.585 1.763-19.818 9.294-45.835 14.414-73.26 14.414z"/><path d="m255.91 126.126c21.962 0 43.126 3.684 60.526 10.444 10.269-13.1 16.404-29.615 16.404-47.537.001-42.476-34.471-77.033-76.84-77.033s-76.841 34.557-76.841 77.033c0 17.893 6.115 34.388 16.364 47.478 17.38-6.721 38.495-10.385 60.387-10.385zm-14.85-45.511c0-8.277 6.693-14.977 14.94-14.977s14.94 6.7 14.94 14.977v16.835c0 8.277-6.693 14.977-14.94 14.977s-14.94-6.7-14.94-14.977z"/></svg>