<svg id="Capa_1" enable-background="new 0 0 512.002 512.002" height="512" viewBox="0 0 512.002 512.002" width="512" xmlns="http://www.w3.org/2000/svg"><g><path d="m467.001 0h-301c-24.814 0-45 20.186-45 45v121c0 24.814 20.186 45 45 45h203.789l55.605 55.605c4.324 4.324 10.815 5.561 16.348 3.252 5.61-2.314 9.258-7.793 9.258-13.857v-45h16c24.814 0 45-20.186 45-45v-121c0-24.814-20.186-45-45-45zm-91 151h-120c-8.291 0-15-6.709-15-15s6.709-15 15-15h120c8.291 0 15 6.709 15 15s-6.709 15-15 15zm30-61h-180c-8.291 0-15-6.709-15-15s6.709-15 15-15h180c8.291 0 15 6.709 15 15s-6.709 15-15 15z"/><path d="m45.001 452h16v45c0 6.064 3.647 11.543 9.258 13.857 5.528 2.307 12.018 1.078 16.348-3.252l55.605-55.605h203.789c24.814 0 45-20.186 45-45v-121c0-24.814-20.186-45-45-45h-301c-24.814 0-45 20.186-45 45v121c0 24.814 20.185 45 45 45zm211-121c8.284 0 15 6.714 15 15 0 8.284-6.716 15-15 15s-15-6.716-15-15c0-8.286 6.716-15 15-15zm-60 0c8.284 0 15 6.714 15 15 0 8.284-6.716 15-15 15s-15-6.716-15-15c0-8.286 6.716-15 15-15zm-60 0c8.284 0 15 6.714 15 15 0 8.284-6.716 15-15 15s-15-6.716-15-15c0-8.286 6.716-15 15-15z"/></g></svg>