<?xml version="1.0" encoding="iso-8859-1"?>
<!-- Generator: Adobe Illustrator 19.0.0, SVG Export Plug-In . SVG Version: 6.00 Build 0)  -->
<svg version="1.1" id="Capa_1" xmlns="http://www.w3.org/2000/svg" xmlns:xlink="http://www.w3.org/1999/xlink" x="0px" y="0px"
	 viewBox="0 0 512 512" style="enable-background:new 0 0 512 512;" xml:space="preserve">
<g>
	<g>
		<circle cx="160" cy="176" r="96"/>
	</g>
</g>
<g>
	<g>
		<path d="M315.872,373.28C276.128,329.248,219.328,304,160,304S43.872,329.248,4.128,373.28C1.472,376.224,0,380.032,0,384v80
			c0,17.664,14.368,32,32,32h256c17.664,0,32-14.336,32-32v-80C320,380.032,318.528,376.224,315.872,373.28z"/>
	</g>
</g>
<g>
	<g>
		<path d="M480,16H320c-17.664,0-32,14.368-32,32v96c0,17.632,14.336,32,32,32v48c0,6.88,4.416,12.992,10.944,15.168
			c1.664,0.576,3.36,0.832,5.056,0.832c4.928,0,9.728-2.304,12.8-6.4L392,176h88c17.664,0,32-14.368,32-32V48
			C512,30.368,497.664,16,480,16z"/>
	</g>
</g>
<g>
</g>
<g>
</g>
<g>
</g>
<g>
</g>
<g>
</g>
<g>
</g>
<g>
</g>
<g>
</g>
<g>
</g>
<g>
</g>
<g>
</g>
<g>
</g>
<g>
</g>
<g>
</g>
<g>
</g>
</svg>
