<svg id="svg1591" height="512" viewBox="0 0 6.3499999 6.3500002" width="512" xmlns="http://www.w3.org/2000/svg" xmlns:svg="http://www.w3.org/2000/svg"><g id="layer1" transform="translate(0 -290.65)"><path id="path2049" d="m1.0552486 291.44116a.26460982.26460982 0 0 0 -.18345127.45527l1.92856447 1.92856-1.92856447 1.92857a.26460982.26460982 0 1 0 .37310377.37517l1.9301149-1.92908 1.9290813 1.92908a.26528584.26528584 0 1 0 .3751707-.37517l-1.9295978-1.92857 1.9295978-1.92856a.26460982.26460982 0 0 0 -.1932696-.45527.26460982.26460982 0 0 0 -.1819011.0801l-1.9290813 1.92908-1.9301149-1.92908a.26460982.26460982 0 0 0 -.1896525-.0801z" font-variant-ligatures="normal" font-variant-position="normal" font-variant-caps="normal" font-variant-numeric="normal" font-variant-alternates="normal" font-feature-settings="normal" text-indent="0" text-align="start" text-decoration-line="none" text-decoration-style="solid" text-decoration-color="rgb(0,0,0)" text-transform="none" text-orientation="mixed" white-space="normal" shape-padding="0" isolation="auto" mix-blend-mode="normal" solid-color="rgb(0,0,0)" solid-opacity="1" vector-effect="none"/></g></svg>