<?xml version="1.0" encoding="iso-8859-1"?>
<!-- Generator: Adobe Illustrator 19.0.0, SVG Export Plug-In . SVG Version: 6.00 Build 0)  -->
<svg version="1.1" id="Layer_1" xmlns="http://www.w3.org/2000/svg" xmlns:xlink="http://www.w3.org/1999/xlink" x="0px" y="0px"
	 viewBox="0 0 321.068 321.068" style="enable-background:new 0 0 321.068 321.068;" xml:space="preserve">
<g>
	<g>
		<path d="M160.427,160.535c-44.267,0-80.213,36.053-80.213,80.32s35.947,80.213,80.213,80.213s80.213-36.053,80.213-80.32
			C240.641,196.482,204.694,160.535,160.427,160.535z M160.427,307.628c-36.907,0-66.88-29.973-66.88-66.88
			c0-36.907,29.973-66.88,66.88-66.88s66.88,30.08,66.88,66.88C227.307,277.655,197.334,307.628,160.427,307.628z"/>
	</g>
</g>
<g>
	<g>
		<rect x="153.708" y="191.788" width="13.333" height="81.707"/>
	</g>
</g>
<g>
	<g>
		<polygon points="190.401,234.028 160.427,264.002 130.454,234.028 121.068,243.522 160.427,282.882 199.787,243.522 		"/>
	</g>
</g>
<g>
	<g>
		<path d="M275.628,97.708c2.773-8.64,3.84-17.6,3.307-26.773c-2.347-38.827-36.907-70.613-77.013-70.933
			c-32.533-0.213-61.76,19.52-73.28,48.427c-11.947-9.387-27.307-13.973-42.88-12.48c-22.187,2.027-41.6,16.853-49.387,37.76
			c-3.413,9.28-4.373,18.773-2.667,28.267c-20.373,9.6-33.707,29.867-33.707,52.16c0,31.253,23.893,54.187,57.28,55.467
			c7.253,11.2,21.12,16.533,31.68,17.6l1.387-13.12c-6.507-0.747-18.773-4.373-23.04-13.76l-1.813-3.947h-5.44
			c-27.627,0-46.827-17.387-46.827-42.24c0-18.56,12.267-35.413,30.4-41.813l5.973-2.133l-1.707-6.08
			c-2.453-8.64-2.133-17.28,0.96-25.707c5.973-16.107,20.907-27.52,38.293-29.12c15.253-1.387,30.08,4.587,39.68,15.893l8.64,10.24
			l2.987-13.12c6.507-28.587,32.853-48.96,63.467-48.853c33.173,0.213,61.867,26.453,63.787,58.347
			c0.64,9.813-1.173,19.413-5.227,28.48l-3.84,8.533l9.387,0.853c23.787,2.24,41.813,21.333,41.813,44.373
			c0,11.627-7.253,29.44-23.04,41.067c-10.667,7.893-29.013,15.467-56,7.147l-3.947,12.8c32.32,9.92,54.72,0.533,67.84-9.173
			c19.627-14.507,28.373-36.48,28.373-51.84C321.068,126.828,302.081,103.895,275.628,97.708z"/>
	</g>
</g>
<g>
</g>
<g>
</g>
<g>
</g>
<g>
</g>
<g>
</g>
<g>
</g>
<g>
</g>
<g>
</g>
<g>
</g>
<g>
</g>
<g>
</g>
<g>
</g>
<g>
</g>
<g>
</g>
<g>
</g>
</svg>
