<svg height="681pt" viewBox="-21 -21 681 681.33578" width="681pt" xmlns="http://www.w3.org/2000/svg"><path d="m26.964844 2.007812 141.570312 68.535157-97.910156 97.914062-68.53125-141.574219c-3.710938-7.414062-2.1210938-15.878906 3.433594-21.433593 5.558594-5.5625 14.027344-7.148438 21.4375-3.441407zm0 0"/><path d="m188.121094 293.882812-95-95 105.847656-105.847656 92.878906 92.882813-26.722656 26.195312c-.527344.527344-10.585938 10.585938-26.464844 27.519531-13.492187 14.027344-31.226562 32.8125-50.539062 54.25zm0 0"/><path d="m539.535156 190.152344-93.414062-93.414063c25.9375-57.15625 60.070312-66.949219 116.4375-82.5625 14.816406-4.230469 32.523437-6.9375 51.574218-13.292969 13.496094-4.5 28.3125 10.328126 23.816407 23.820313-6.085938 18.785156-11.617188 33.136719-15.851563 47.953125-17.46875 58.753906-26.996094 92.089844-82.5625 117.496094zm0 0"/><path d="m423.628906 317.699219c39.164063-41.28125 64.039063-74.09375 85.207032-105.320313l-85.207032-85.207031c-31.226562 21.171875-64.035156 46.042969-105.316406 85.207031-8.203125 8.207032-17.203125 16.671875-26.730469 26.199219l105.847657 105.847656c9.53125-9.523437 17.996093-18.523437 26.199218-26.726562zm-157.980468-52.128907c-13.492188 14.023438-31.222657 32.8125-51.070313 54.773438-93.675781 102.144531-243.640625 279.28125-209.503906 313.417969 34.132812 34.136719 208.445312-118.65625 310.589843-212.328125 21.964844-19.851563 40.75-37.578125 54.777344-51.074219zm0 0"/><path d="m503.28125 397.351562-105.847656 105.847657-55.308594-55.304688c21.703125-19.585937 40.226562-37.050781 53.984375-50.28125 17.199219-16.140625 27.253906-26.195312 27.785156-26.726562l26.199219-26.726563zm0 0"/><path d="m423.890625 529.664062 105.847656-105.847656 26.460938 26.460938-105.847657 105.847656zm0 0"/><path d="m622.359375 595.816406-26.460937 26.464844c-21.960938 21.960938-57.421876 21.960938-79.386719 0l-39.691407-39.695312 105.847657-105.847657 39.691406 39.695313c21.964844 21.957031 21.964844 57.421875 0 79.382812zm0 0"/></svg>