<?xml version="1.0" encoding="iso-8859-1"?>
<!-- Generator: Adobe Illustrator 18.0.0, SVG Export Plug-In . SVG Version: 6.00 Build 0)  -->
<!DOCTYPE svg PUBLIC "-//W3C//DTD SVG 1.1//EN" "http://www.w3.org/Graphics/SVG/1.1/DTD/svg11.dtd">
<svg version="1.1" id="Capa_1" xmlns="http://www.w3.org/2000/svg" xmlns:xlink="http://www.w3.org/1999/xlink" x="0px" y="0px"
	 viewBox="0 0 297 297" style="enable-background:new 0 0 297 297;" xml:space="preserve">
<g>
	<path d="M290.189,179.418L168.54,134.912c-1.161-0.424-2.367-0.63-3.562-0.63c-2.695,0-5.338,1.048-7.316,3.014
		c-2.856,2.837-3.814,7.07-2.456,10.861l44.035,122.948c1.453,4.058,5.263,6.794,9.573,6.876c0.065,0.001,0.132,0.002,0.197,0.002
		c4.231,0,8.048-2.572,9.628-6.511l16.52-41.127l34.731,35.107c2.029,2.052,4.703,3.079,7.377,3.079
		c2.638,0,5.276-0.999,7.299-2.999c4.074-4.032,4.109-10.602,0.079-14.677l-34.948-35.326l40.864-16.766
		c3.963-1.625,6.52-5.519,6.437-9.801C296.916,184.682,294.21,180.891,290.189,179.418z"/>
	<path d="M145.96,125.518c5.087-5.056,11.842-7.84,19.018-7.84c3.167,0,6.28,0.552,9.267,1.641l55.052,20.142V36.658
		c0-9.702-7.939-17.642-17.642-17.642H17.642C7.939,19.017,0,26.956,0,36.658V192.6c0,9.702,7.939,17.642,17.642,17.642h142.164
		l-20.23-56.484C136.061,143.945,138.567,132.86,145.96,125.518z"/>
</g>
<g>
</g>
<g>
</g>
<g>
</g>
<g>
</g>
<g>
</g>
<g>
</g>
<g>
</g>
<g>
</g>
<g>
</g>
<g>
</g>
<g>
</g>
<g>
</g>
<g>
</g>
<g>
</g>
<g>
</g>
</svg>
