<svg height="512pt" viewBox="0 0 512 512" width="512pt" xmlns="http://www.w3.org/2000/svg"><path d="m205.332031 395.113281c-1.40625 1.386719-2.386719 3.160157-2.835937 5.101563l-23.253906 98.6875c-.851563 3.582031.234374 7.378906 2.835937 9.984375 2.027344 2.003906 4.757813 3.113281 7.554687 3.113281.808594 0 1.640626-.085938 2.453126-.296875l98.667968-23.253906c1.917969-.449219 3.6875-1.429688 5.097656-2.839844l139.539063-139.539063-90.515625-90.519531zm0 0"/><path d="m499.5 221.632812-30.167969-30.167968c-16.125-16.125-44.222656-16.125-60.351562 0l-41.472657 41.472656 90.519532 90.519531 41.472656-41.472656c8.0625-8.0625 12.5-18.773437 12.5-30.164063 0-11.414062-4.4375-22.125-12.5-30.1875zm0 0"/><path d="m145.921875 405.332031h-92.589844c-5.886719 0-10.664062-4.777343-10.664062-10.664062v-53.335938h160c11.773437 0 21.332031-9.554687 21.332031-21.332031v-85.332031h86.828125c11.773437 0 21.332031-9.558594 21.332031-21.335938 0-11.773437-9.558594-21.332031-21.332031-21.332031h-86.828125v-64h138.667969v21.332031c0 11.777344 9.554687 21.335938 21.332031 21.335938s21.332031-9.558594 21.332031-21.335938v-101.332031c0-26.476562-21.523437-48-48-48h-309.332031c-26.476562 0-48 21.523438-48 48v346.667969c0 29.394531 23.9375 53.332031 53.332031 53.332031h92.589844c11.773437 0 21.332031-9.558594 21.332031-21.332031 0-11.777344-9.558594-21.335938-21.332031-21.335938zm35.410156-106.664062h-138.664062v-64h138.664062zm0-106.667969h-138.664062v-64h138.664062zm0 0"/></svg>