<svg id="Capa_1" enable-background="new 0 0 512 512" height="512" viewBox="0 0 512 512" width="512" xmlns="http://www.w3.org/2000/svg"><g><path d="m270 186h-60c-5.523 0-10 4.477-10 10v60c0 5.523 4.477 10 10 10h60c5.522 0 10-4.477 10-10v-60c0-5.523-4.478-10-10-10zm-10 60h-40v-40h40z"/><path d="m384.194 443.583c3.474 2.477 8.137 2.477 11.611 0 21.411-15.267 34.195-40.105 34.195-66.443v-25.14c0-5.523-4.478-10-10-10h-60c-5.522 0-10 4.477-10 10v25.14c0 26.338 12.783 51.176 34.194 66.443zm-14.194-81.583h40v15.14c0 17.374-7.364 33.882-20 45.458-12.636-11.576-20-28.084-20-45.458z"/><circle cx="344" cy="90" r="10"/><path d="m234.005 80.105c.002-.001.003-.003.005-.004-.001.002-.003.003-.005.004z"/><path d="m233.99 80.117c.006-.004.011-.008.015-.011-.005.004-.011.008-.015.011z"/><path d="m62.501 220.972c3.397 4.097 9.404 4.815 13.67 1.64l3.828-2.85v192.238c0 5.523 4.477 10 10 10h207.304c14.06 42.167 47.04 75.315 89.532 89.486 1.027.342 2.096.514 3.164.514s2.136-.171 3.162-.513c57.538-19.18 96.839-72.988 96.839-134.357v-55.13c0-5.523-4.478-10-10-10-11.028 0-20-8.972-20-20 0-5.523-4.478-10-10-10h-50v-62.239l3.828 2.85c4.26 3.17 10.254 2.46 13.654-1.62l38.4-46.08c3.644-4.375 2.904-10.91-1.625-14.358l-68.017-51.783c-4.395-3.347-10.67-2.495-14.014 1.899-3.346 4.395-2.496 10.669 1.898 14.014l59.703 45.453-25.65 30.779-162.204-120.825c-3.545-2.641-8.403-2.641-11.948 0-.002.001-.003.002-.004.003 0 0 .001 0 .001-.001-.001.001-.003.002-.006.004-.017.013-.026.019-.029.021.001 0 .002-.001.003-.002-.629.468-11.756 8.757-162.149 120.785l-25.494-30.753 193.656-147.577 62.549 47.621c4.394 3.346 10.67 2.495 14.014-1.899 3.346-4.395 2.496-10.668-1.898-14.014l-68.611-52.235c-3.581-2.725-8.54-2.725-12.119.003l-208 158.51c-4.519 3.443-5.264 9.961-1.638 14.335zm378.764 81.028c3.625 14.036 14.698 25.109 28.734 28.734v46.396c0 51.553-32.311 96.945-79.998 114.281-48.61-17.695-80.001-63.688-80.001-114.281v-46.396c14.036-3.625 25.109-14.699 28.734-28.734zm-341.265-97.129 140-104.291 140 104.291v77.129h-50c-5.522 0-10 4.477-10 10 0 11.028-8.972 20-20 20-5.522 0-10 4.477-10 10v55.13c0 8.367.751 16.688 2.209 24.87h-192.209z"/><path d="m234.021 80.094c-.002.002-.006.005-.011.008.002-.001.004-.003.005-.004.003-.002.004-.003.006-.004z"/></g></svg>