<?xml version="1.0" encoding="iso-8859-1"?>
<!-- Generator: Adobe Illustrator 19.0.0, SVG Export Plug-In . SVG Version: 6.00 Build 0)  -->
<svg version="1.1" id="Capa_1" xmlns="http://www.w3.org/2000/svg" xmlns:xlink="http://www.w3.org/1999/xlink" x="0px" y="0px"
	 viewBox="0 0 476.912 476.912" style="enable-background:new 0 0 476.912 476.912;" xml:space="preserve">
<g>
	<g>
		<path d="M461.776,209.408L249.568,4.52c-6.182-6.026-16.042-6.026-22.224,0L15.144,209.4c-3.124,3.015-4.888,7.17-4.888,11.512
			c0,8.837,7.164,16,16,16h28.2v224c0,8.837,7.163,16,16,16h112c8.837,0,16-7.163,16-16v-128h80v128c0,8.837,7.163,16,16,16h112
			c8.837,0,16-7.163,16-16v-224h28.2c4.338,0,8.489-1.761,11.504-4.88C468.301,225.678,468.129,215.549,461.776,209.408z
			 M422.456,220.912c-8.837,0-16,7.163-16,16v224h-112v-128c0-8.837-7.163-16-16-16h-80c-8.837,0-16,7.163-16,16v128h-112v-224
			c0-8.837-7.163-16-16-16h-28.2l212.2-204.88l212.28,204.88H422.456z"/>
	</g>
</g>
<g>
</g>
<g>
</g>
<g>
</g>
<g>
</g>
<g>
</g>
<g>
</g>
<g>
</g>
<g>
</g>
<g>
</g>
<g>
</g>
<g>
</g>
<g>
</g>
<g>
</g>
<g>
</g>
<g>
</g>
</svg>
