<?xml version="1.0" encoding="iso-8859-1"?>
<!-- Generator: Adobe Illustrator 19.0.0, SVG Export Plug-In . SVG Version: 6.00 Build 0)  -->
<svg version="1.1" id="Capa_1" xmlns="http://www.w3.org/2000/svg" xmlns:xlink="http://www.w3.org/1999/xlink" x="0px" y="0px"
	 viewBox="0 0 512 512" style="enable-background:new 0 0 512 512;" xml:space="preserve">
<g>
	<g>
		<path d="M506.144,211.626l-97.024-79.52l61.504-61.504l-45.248-45.248l-65.984,65.984l-83.424-68.32
			c-11.744-9.408-28.16-9.376-40.096,0.128L5.856,211.626C2.144,214.666,0,219.21,0,224.01v240c0,17.664,14.368,32,32,32h448
			c17.664,0,32-14.336,32-32v-240C512,219.21,509.856,214.666,506.144,211.626z M256.128,347.562L43.808,221.866L255.84,47.882
			l80.8,66.24L256,194.762l-41.376-41.376l-45.248,45.248L256,285.258l130.4-130.4l81.792,67.04L256.128,347.562z"/>
	</g>
</g>
<g>
</g>
<g>
</g>
<g>
</g>
<g>
</g>
<g>
</g>
<g>
</g>
<g>
</g>
<g>
</g>
<g>
</g>
<g>
</g>
<g>
</g>
<g>
</g>
<g>
</g>
<g>
</g>
<g>
</g>
</svg>
