<svg id="Layer_1" enable-background="new 0 0 480 480" height="512" viewBox="0 0 480 480" width="512" xmlns="http://www.w3.org/2000/svg"><path d="m320.015 59c-57.9 0-105 47.1-105 105s47.1 105 105 105 105-47.1 105-105-47.1-105-105-105zm-2.386 95.873 9.544 2.982c10.074 3.148 16.842 12.354 16.842 22.907v3.238c0 11.519-8.159 21.166-19 23.473v2.527c0 4.418-3.582 8-8 8s-8-3.582-8-8v-4.68c-7.714-3.996-13-12.05-13-21.32 0-4.418 3.582-8 8-8s8 3.582 8 8c0 4.411 3.589 8 8 8s8-3.589 8-8v-3.237c0-3.518-2.256-6.586-5.614-7.636l-9.544-2.982c-10.074-3.148-16.842-12.354-16.842-22.907v-3.238c0-10.429 6.689-19.321 16-22.624v-3.376c0-4.418 3.582-8 8-8s8 3.582 8 8v3.376c9.311 3.303 16 12.195 16 22.624 0 4.418-3.582 8-8 8s-8-3.582-8-8c0-4.411-3.589-8-8-8s-8 3.589-8 8v3.237c0 3.518 2.256 6.586 5.614 7.636zm76.112 309.126c-21.934-.148-39.726-18.03-39.726-39.999v-133.634c0-5.059-4.642-8.864-9.595-7.832-74.27 15.484-145.405-41.592-145.405-118.534 0-76.921 71.112-134.025 145.405-118.535 4.953 1.033 9.595-2.773 9.595-7.832v-5.633c0-17.673-14.327-32-32-32h-260c-17.673 0-32 14.327-32 32v392c0 30.928 25.072 56 56 56h308c4.632 0 8.341-3.932 7.975-8.641-.327-4.209-4.027-7.331-8.249-7.36zm-285.726-346.999h68c4.418 0 8 3.582 8 8s-3.582 8-8 8h-68c-4.418 0-8-3.582-8-8s3.582-8 8-8zm0 90h68c4.418 0 8 3.582 8 8s-3.582 8-8 8h-68c-4.418 0-8-3.582-8-8s3.582-8 8-8zm168 190h-168c-4.418 0-8-3.582-8-8s3.582-8 8-8h168c4.418 0 8 3.582 8 8s-3.582 8-8 8zm0-84h-168c-4.418 0-8-3.582-8-8s3.582-8 8-8h168c4.418 0 8 3.582 8 8s-3.582 8-8 8zm173.97 98.98c.03 22.11-17.89 40.03-39.97 40.03-22.065 0-39.97-17.88-39.97-39.97 0-73.893-.053-102.683-.005-114.082.019-4.405 3.595-7.958 8-7.958h39.975c16.6 0 30.25 12.64 31.84 28.82z"/></svg>