<?xml version="1.0" encoding="iso-8859-1"?>
<!-- Generator: Adobe Illustrator 19.0.0, SVG Export Plug-In . SVG Version: 6.00 Build 0)  -->
<svg version="1.1" id="Capa_1" xmlns="http://www.w3.org/2000/svg" xmlns:xlink="http://www.w3.org/1999/xlink" x="0px" y="0px"
	 viewBox="0 0 511.985 511.985" style="enable-background:new 0 0 511.985 511.985;" xml:space="preserve">
<g>
	<g>
		<g>
			
				<rect x="127.754" y="240.221" transform="matrix(-0.7071 0.7071 -0.7071 -0.7071 617.7541 256.5912)" width="255.962" height="32.03"/>
			<path d="M221.824,358.072l-90.496,90.46l-67.871-67.84l90.496-90.527l45.251-45.251c-24.863-24.893-65.633-24.893-90.496,0
				l-90.563,90.501C7.665,345.897,1.654,359.188,0,372.92v15.457c1.654,13.752,7.685,27.064,18.207,37.56l67.871,67.84
				c10.573,10.588,24.023,16.625,37.903,18.207h14.689c13.88-1.582,27.331-7.624,37.903-18.207l90.496-90.496
				c24.863-24.863,24.863-65.633,0-90.496L221.824,358.072z"/>
			<path d="M493.312,86.548l-67.871-67.871c-24.863-24.899-65.633-24.899-90.496-0.031l-90.496,90.527
				c-24.899,24.893-24.96,65.633,0,90.563l45.245-45.251l67.871-67.937l22.625-22.625l67.876,67.907l-22.625,22.656L312.32,267.54
				c24.863,24.899,65.633,24.899,90.496,0l90.496-90.496C518.175,152.151,518.242,111.416,493.312,86.548z"/>
		</g>
	</g>
</g>
<g>
</g>
<g>
</g>
<g>
</g>
<g>
</g>
<g>
</g>
<g>
</g>
<g>
</g>
<g>
</g>
<g>
</g>
<g>
</g>
<g>
</g>
<g>
</g>
<g>
</g>
<g>
</g>
<g>
</g>
</svg>
