<svg id="Layer_1" enable-background="new 0 0 512 512" height="512" viewBox="0 0 512 512" width="512" xmlns="http://www.w3.org/2000/svg"><g><path d="m72 144c-39.701 0-72-32.299-72-72s32.299-72 72-72 72 32.299 72 72-32.299 72-72 72zm0-112c-22.056 0-40 17.944-40 40s17.944 40 40 40 40-17.944 40-40-17.944-40-40-40z"/><path d="m72 328c-39.701 0-72-32.299-72-72s32.299-72 72-72 72 32.299 72 72-32.299 72-72 72zm0-112c-22.056 0-40 17.944-40 40s17.944 40 40 40 40-17.944 40-40-17.944-40-40-40z"/><path d="m72 512c-39.701 0-72-32.299-72-72s32.299-72 72-72 72 32.299 72 72-32.299 72-72 72zm0-112c-22.056 0-40 17.944-40 40s17.944 40 40 40 40-17.944 40-40-17.944-40-40-40z"/><path d="m440 144h-192c-39.701 0-72-32.299-72-72s32.299-72 72-72h192c39.701 0 72 32.299 72 72s-32.299 72-72 72z"/><path d="m440 328h-192c-39.701 0-72-32.299-72-72s32.299-72 72-72h192c39.701 0 72 32.299 72 72s-32.299 72-72 72z"/><path d="m440 512h-192c-39.701 0-72-32.299-72-72s32.299-72 72-72h192c39.701 0 72 32.299 72 72s-32.299 72-72 72z"/></g></svg>