<svg id="Layer_1" enable-background="new 0 0 512 512" height="512" viewBox="0 0 512 512" width="512" xmlns="http://www.w3.org/2000/svg"><path d="m141.255 52h-106.51c-19.159 0-34.745 15.586-34.745 34.745v106.51c0 19.159 15.586 34.745 34.745 34.745h106.51c19.159 0 34.745-15.586 34.745-34.745v-106.51c0-19.159-15.586-34.745-34.745-34.745z"/><path d="m141.255 284h-106.51c-19.159 0-34.745 15.586-34.745 34.745v106.51c0 19.159 15.586 34.745 34.745 34.745h106.51c19.159 0 34.745-15.586 34.745-34.745v-106.51c0-19.159-15.586-34.745-34.745-34.745z"/><path d="m496 132h-256c-8.836 0-16-7.164-16-16s7.164-16 16-16h256c8.836 0 16 7.164 16 16s-7.164 16-16 16z"/><path d="m408 192h-168c-8.836 0-16-7.164-16-16s7.164-16 16-16h168c8.836 0 16 7.164 16 16s-7.164 16-16 16z"/><path d="m496 360h-256c-8.836 0-16-7.164-16-16s7.164-16 16-16h256c8.836 0 16 7.164 16 16s-7.164 16-16 16z"/><path d="m408 424h-168c-8.836 0-16-7.164-16-16s7.164-16 16-16h168c8.836 0 16 7.164 16 16s-7.164 16-16 16z"/></svg>