<svg id="Capa_1" enable-background="new 0 0 512 512" height="512" viewBox="0 0 512 512" width="512" xmlns="http://www.w3.org/2000/svg"><g><path d="m476.861 456.764c-54.476 0-114.655 0-131.633 0v-31.867h121.165c-10.176-30.979-19.165-58.346-19.19-58.424-10.159 0-45.764 0-91.428 0-27.44 26.183-52.811 50.26-75.539 81.415l-24.238 33.225-24.235-33.227c-22.933-31.438-48.856-55.938-75.534-81.413-52.766 0-91.385 0-91.432 0-.158.483-9.091 27.676-19.19 58.424h121.165v31.867c-23.39 0-82.444 0-131.633 0-9.614 29.266-17.907 54.515-18.143 55.236h478.008c-.232-.709-8.527-25.964-18.143-55.236z"/><path d="m256 430.207c72.315-99.128 175.27-137.375 175.27-254.938 0-100.434-74.836-175.269-175.27-175.269-100.402 0-175.27 74.835-175.27 175.27 0 117.547 102.988 155.841 175.27 254.937zm0-296.152c26.332 0 47.801 21.468 47.801 47.801 0 26.322-21.469 47.801-47.801 47.801-26.334 0-47.801-21.479-47.801-47.801 0-26.333 21.467-47.801 47.801-47.801z"/></g></svg>