<svg enable-background="new 0 0 512 512" height="512" viewBox="0 0 512 512" width="512" xmlns="http://www.w3.org/2000/svg"><path d="m257.36 337.61c-33.084 0-60 26.916-60 60s26.916 60 60 60 60-26.916 60-60-26.916-60-60-60zm0 100c-22.057 0-40-17.944-40-40s17.944-40 40-40 40 17.944 40 40-17.944 40-40 40z"/><path d="m257.36 197.61c-33.084 0-60 26.916-60 60s26.916 60 60 60 60-26.916 60-60-26.916-60-60-60zm0 100c-22.057 0-40-17.943-40-40 0-22.056 17.944-40 40-40s40 17.944 40 40c0 22.057-17.944 40-40 40z"/><path d="m257.36 177.61c33.084 0 60-26.916 60-60s-26.916-60-60-60-60 26.916-60 60 26.916 60 60 60zm0-100c22.056 0 40 17.944 40 40 0 22.057-17.944 40-40 40-22.057 0-40-17.943-40-40 0-22.055 17.944-40 40-40z"/></svg>