<?xml version="1.0"?>
<svg xmlns="http://www.w3.org/2000/svg" id="Layer_1" data-name="Layer 1" viewBox="0 0 24 24" width="512" height="512"><path d="M12,12.735l9.487-7.324A2.972,2.972,0,0,0,20,5H4a2.955,2.955,0,0,0-1.454.393Z"/><path d="M22.7,17.285A2.951,2.951,0,0,0,23,16V8a2.968,2.968,0,0,0-.206-1.069l-5.9,4.552Z"/><path d="M15.3,12.715l-2.69,2.077a1,1,0,0,1-1.224,0L8.706,12.708,2.715,18.7A2.965,2.965,0,0,0,4,19H20a2.951,2.951,0,0,0,1.285-.3Z"/><path d="M1.217,6.894A2.974,2.974,0,0,0,1,8v8a2.965,2.965,0,0,0,.3,1.285l5.813-5.813Z"/></svg>
