<svg height="405pt" viewBox="-32 0 405 405.33333" width="405pt" xmlns="http://www.w3.org/2000/svg"><path d="m338.378906 344.460938c-39.546875-39.542969-39.546875-78.855469-39.546875-120.460938v-53.332031c-.089843-54.519531-34.671875-103.011719-86.1875-120.855469.496094-2.351562.78125-4.742188.851563-7.144531 0-23.566407-19.101563-42.667969-42.664063-42.667969-23.566406 0-42.667969 19.101562-42.667969 42.667969.074219 2.402343.363282 4.796875.859376 7.152343-51.515626 17.839844-86.101563 66.328126-86.191407 120.847657v53.332031c0 41.601562 0 80.917969-39.542969 120.460938-3.050781 3.050781-3.960937 7.636718-2.308593 11.621093 1.648437 3.984375 5.539062 6.582031 9.851562 6.585938h117.332031c0 23.5625 19.101563 42.664062 42.667969 42.664062 23.5625 0 42.664063-19.101562 42.664063-42.664062h117.335937c4.3125 0 8.203125-2.601563 9.855469-6.585938 1.648438-3.984375.738281-8.574219-2.3125-11.625zm-188.882812-301.792969c0-11.785157 9.554687-21.335938 21.335937-21.335938s21.332031 9.550781 21.332031 21.335938c0 .625-.40625 1.230469-.464843 1.855469-13.804688-2.476563-27.933594-2.476563-41.738281 0-.058594-.628907-.464844-1.234376-.464844-1.855469zm21.335937 341.339843c-11.78125-.007812-21.324219-9.554687-21.335937-21.332031h42.667968c-.011718 11.777344-9.554687 21.320313-21.332031 21.328125zm-136.546875-42.675781c29.878906-39.664062 29.878906-79.058593 29.878906-117.332031v-53.332031c0-58.910157 47.757813-106.667969 106.667969-106.667969 58.910157 0 106.664063 47.757812 106.664063 106.667969v53.332031c0 38.269531 0 77.667969 29.875 117.332031zm0 0"/></svg>