<?xml version="1.0" encoding="iso-8859-1"?>
<!-- Generator: Adobe Illustrator 19.0.0, SVG Export Plug-In . SVG Version: 6.00 Build 0)  -->
<svg version="1.1" id="Capa_1" xmlns="http://www.w3.org/2000/svg" xmlns:xlink="http://www.w3.org/1999/xlink" x="0px" y="0px"
	 viewBox="0 0 375.031 375.031" style="enable-background:new 0 0 375.031 375.031;" xml:space="preserve">
<g>
	<g>
		<path d="M373.9,166.63c-9.3-85.5-78.4-155.2-163.7-165.3c-22.9-2.7-45.2-1.2-66,3.7c-27.5,6.5-38.1,39.8-19.8,61.4
			c27.7,32.7,44.4,74.9,44.4,121.1s-16.7,88.5-44.5,121.1c-18,21.2-8.1,54.5,18.9,61.1c14.2,3.5,29,5.3,44.3,5.3
			C298,375.03,386.1,279.53,373.9,166.63z M271.9,75.03c15.5,0,28.1,12.6,28.1,28.1s-12.6,28.1-28.1,28.1s-28.1-12.6-28.1-28.1
			S256.3,75.03,271.9,75.03z M196.9,337.53c-15.5,0-28.1-12.6-28.1-28.1s12.6-28.1,28.1-28.1s28.1,12.6,28.1,28.1
			S212.4,337.53,196.9,337.53z M196.9,93.83c-15.5,0-28.1-12.6-28.1-28.1s12.6-28.1,28.1-28.1s28.1,12.6,28.1,28.1
			S212.4,93.83,196.9,93.83z M271.9,281.23c-15.5,0-28.1-12.6-28.1-28.1s12.6-28.1,28.1-28.1s28.1,12.6,28.1,28.1
			C300,268.73,287.4,281.23,271.9,281.23z M310.5,206.23c-15.5,0-28.1-12.6-28.1-28.1s12.6-28.1,28.1-28.1s28.1,12.6,28.1,28.1
			S326.1,206.23,310.5,206.23z"/>
	</g>
</g>
<g>
	<g>
		<path d="M18.8,0.03c5,68.8-18.8,60.9-18.8,93.7c0,20.7,16.8,37.5,37.5,37.5S75,114.43,75,93.73C75,49.53,18.8,0.03,18.8,0.03z"/>
	</g>
</g>
<g>
	<g>
		<path d="M0,168.73l17.3,187.6c0.7,10.5,9.5,18.7,20.1,18.7c10.6,0,19.3-8.2,20.1-18.7L75,168.73H0z"/>
	</g>
</g>
<g>
</g>
<g>
</g>
<g>
</g>
<g>
</g>
<g>
</g>
<g>
</g>
<g>
</g>
<g>
</g>
<g>
</g>
<g>
</g>
<g>
</g>
<g>
</g>
<g>
</g>
<g>
</g>
<g>
</g>
</svg>
