<svg id="Business_partnership" height="512" viewBox="0 0 900 900" width="512" xmlns="http://www.w3.org/2000/svg" data-name="Business partnership"><g id="_19-Partnership" data-name="19-Partnership"><path d="m327.31 265.54a59.05 59.05 0 1 0 -59.05-59.05 59.12 59.12 0 0 0 59.05 59.05zm0-86.1a27.05 27.05 0 1 1 -27.05 27.05 27.09 27.09 0 0 1 27.05-27.05z"/><path d="m573 265.54a59.05 59.05 0 1 0 -59-59.05 59.12 59.12 0 0 0 59 59.05zm0-86.1a27.05 27.05 0 1 1 -27 27.05 27.09 27.09 0 0 1 27-27.05z"/><path d="m788.85 94.34a45.2 45.2 0 0 0 -44.92-9.54c-14.68 4.93-25.84 17.54-29.86 33.74v.14s0 .1 0 .15a305.65 305.65 0 0 1 -139.07 192.91l-19.46-16.17a81.83 81.83 0 0 0 -52.41-19h-105.88a81.85 81.85 0 0 0 -52.44 19.05l-19.46 16.17a305.9 305.9 0 0 1 -139.5-192.91s0-.09 0-.14 0-.08 0-.12c-4-16.2-15.14-28.83-29.87-33.77a45.17 45.17 0 0 0 -44.98 9.49 45.88 45.88 0 0 0 -13.51 43.36s0 .08 0 .12v.12a366.32 366.32 0 0 0 139.7 217.32 1.3 1.3 0 0 1 .52 1l10 418.61c.57 25.1 21.86 45.51 47.5 45.51a48.16 48.16 0 0 0 31.79-11.84 48.92 48.92 0 0 0 31.86 11.9c25.62 0 46.91-20.42 47.51-45.52l10-409.08a1.31 1.31 0 0 1 1.32-1.28h65a1.3 1.3 0 0 1 1.31 1.28l10 409.06c.62 25.11 21.93 45.53 47.51 45.53a48.15 48.15 0 0 0 31.71-11.89 49 49 0 0 0 31.87 11.89c25.26 0 46.57-20.34 47.5-45.34 0 0 0-.07 0-.1a.38.38 0 0 0 0-.1l10-418.61a1.31 1.31 0 0 1 .53-1 365.9 365.9 0 0 0 139.19-217.46c0-.06 0-.13 0-.19a45.2 45.2 0 0 0 -13.46-43.29zm-144.85 235.27a33.12 33.12 0 0 0 -13.39 25.91l-10 418.41c-.31 8-7.27 14.51-15.52 14.51s-16-6.75-16-13.89v-244.35a16 16 0 0 0 -32 0v244.35c0 7.4-7.27 13.89-15.55 13.89s-15.32-6.56-15.52-14.33l-10.02-409.11a33.11 33.11 0 0 0 -33.3-32.5h-65a33.13 33.13 0 0 0 -33.36 32.5s-10 409.12-10 409.15c-.17 7.75-7.28 14.29-15.51 14.29s-16-6.88-16-13.89v-244.35a16 16 0 0 0 -32 0v244.35c0 7.4-7.27 13.89-15.55 13.89s-15.35-6.4-15.52-14.31l-10-418.62a33.12 33.12 0 0 0 -13.39-25.9 334.31 334.31 0 0 1 -127.56-198.43s0 0 0-.05a.09.09 0 0 1 0 0 13.8 13.8 0 0 1 3.82-13.16 13.17 13.17 0 0 1 13.1-2.78c5 1.68 7.93 6.82 9 11.08a338 338 0 0 0 162.15 217.63 19.68 19.68 0 0 0 9.65 2.54 20.09 20.09 0 0 0 12.54-4.51l26.17-21.75a49.81 49.81 0 0 1 32-11.64h105.8a49.78 49.78 0 0 1 31.96 11.59l26.17 21.75a19.65 19.65 0 0 0 22.19 2 334.22 334.22 0 0 0 103.91-91.88 335.22 335.22 0 0 0 57.86-125.73c1.06-4.26 4-9.42 9-11.1a13.18 13.18 0 0 1 17 15.59v.23l-.06.22a333.88 333.88 0 0 1 -127.07 198.4z"/></g></svg>