<svg id="Business_partnership" height="512" viewBox="0 0 900 900" width="512" xmlns="http://www.w3.org/2000/svg" data-name="Business partnership"><g id="_18-Partnership" data-name="18-Partnership"><path d="m881.18 254.94-.06-.1-30.47-43.63 30.47-43.62.06-.11a19.37 19.37 0 0 0 -15.94-30.37h-.13l-77.21.62v-30.73c0-10.33-9.07-19.37-19.37-19.37h-149.2a33.64 33.64 0 0 0 -33.61 33.48s0 0 0 .06l-.72 141.89h-158.35a79.48 79.48 0 0 0 -50.93 18.51l-17.3 14.43-18-14.93a77.12 77.12 0 0 0 -77.2-12.82q-1.71.66-3.39 1.41a77.27 77.27 0 0 0 -80.46 11.29l-15.87 12.93-15.83-12.88a77.1 77.1 0 0 0 -125.77 48.61 550.11 550.11 0 0 0 2.19 165.86v.06s0 0 0 .06c3.49 20.96 22.41 36.41 43.53 36.41a44.34 44.34 0 0 0 5.12-.3 43.33 43.33 0 0 0 7.62-1.62l6.09 235.76c.64 25.25 22.07 45.77 47.82 45.77a47.56 47.56 0 0 0 31.54-11.86 49.84 49.84 0 0 0 32.19 11.87 47.9 47.9 0 0 0 33-13.15 46.72 46.72 0 0 0 14.8-32.47v-.09s0-.06 0-.1l5.42-234.81a44.25 44.25 0 0 0 9 1 43.23 43.23 0 0 0 5.18-.31 41.79 41.79 0 0 0 7.31-1.54l5.65 235.65v.13c.82 25.21 22.27 45.71 47.82 45.71a48.74 48.74 0 0 0 32.16-12 49.89 49.89 0 0 0 32.31 12c25.69 0 47.14-20.54 47.82-45.84l9.79-410.61v-.05s.06-.07.08-.07l136.58.7v440.6a16 16 0 1 0 32 0v-445.58a46.3 46.3 0 0 0 0-82.7l.15-31.5h93.75v29.35c0 10.3 9 19.38 19.37 19.38h135a19.37 19.37 0 0 0 15.94-30.38zm-683.18 524.68c-8.69 0-16.61-6.67-16.61-14v-247.4a16 16 0 0 0 -32 0v247.41c0 7.58-6.92 14-15.12 14-8.39 0-15.64-6.69-15.82-14.64l-10.36-400.58a16 16 0 0 0 -16-15.59h-.42a16 16 0 0 0 -15.57 16.42l3.14 121.43c.14 5.94-3.34 12.4-10.27 13.22-6.24.75-12.34-3.63-13.29-9.55a0 0 0 0 0 0 0 518.06 518.06 0 0 1 -2.08-156.34 45.11 45.11 0 0 1 73.67-28.38s0 0 .08.07l.09.07 23.78 19.41a19.58 19.58 0 0 0 12.28 4.4 19.86 19.86 0 0 0 12.29-4.4l23.78-19.4.07-.07.1-.07a45.09 45.09 0 0 1 28.68-10.54 77.05 77.05 0 0 0 -13.84 34.53 550.16 550.16 0 0 0 2.16 165.72v.16a.44.44 0 0 0 0 .1 41.58 41.58 0 0 0 3 10.13l-6 259.09c-.21 8.18-7.31 14.8-15.74 14.8zm192.68 0c-8.7 0-16.61-6.67-16.61-14v-247.4a16 16 0 0 0 -32 0v247.41c0 7.45-7.42 14-15.87 14s-15.56-6.75-15.83-14.73l-9.6-400.45a16 16 0 0 0 -32 .77l2.91 121.17v.29c.14 5.78-2.94 12.38-10 13.22-6.19.73-12.39-3.67-13.28-9.42a.36.36 0 0 0 0-.1.31.31 0 0 0 0-.1 518.06 518.06 0 0 1 -2.12-156.28 45.11 45.11 0 0 1 73.72-28.39l26 21.65a19.57 19.57 0 0 0 12.4 4.5 19.79 19.79 0 0 0 12.42-4.51l25.37-21.16a47.44 47.44 0 0 1 30.44-11.08h169.46a14.37 14.37 0 0 1 0 28.73l-147.61-.74h-.09a31.93 31.93 0 0 0 -32.1 31.35l-9.79 410.65c-.23 8.05-7.32 14.62-15.83 14.62zm227-658.34a1.63 1.63 0 0 1 1.62-1.62h136.6v85h-138.58l.39-83.27zm150.85 115.31c10.34 0 19.37-9.06 19.37-19.38v-47.48l53-.42-21.52 30.8s0 .1-.08.14a19.4 19.4 0 0 0 0 21.91l.09.16 21.65 31h-98.1v-16.74z"/><path d="m163.5 246.83a59.05 59.05 0 1 0 -59-59.05 59.12 59.12 0 0 0 59 59.05zm0-86.1a27.05 27.05 0 1 1 -27.05 27.05 27.08 27.08 0 0 1 27.05-27.05z"/><path d="m358.06 246.83a59.05 59.05 0 1 0 -59.06-59.05 59.11 59.11 0 0 0 59.06 59.05zm0-86.1a27.05 27.05 0 1 1 -27.06 27.05 27.08 27.08 0 0 1 27.06-27.05z"/></g></svg>