<svg fill="none" height="512" viewBox="0 0 24 24" width="512" xmlns="http://www.w3.org/2000/svg"><path clip-rule="evenodd" d="m5 20.0944v-16.38011c0-.35896.36703-.60098.69696-.45958l2.60608 1.11689c.12577.05391.26815.05391.39392 0l3.10604-1.33117c.1258-.05391.2682-.05391.394 0l3.106 1.33117c.1258.05391.2682.05391.394 0l2.606-1.11689c.33-.1414.697.10062.697.45958v16.38011c0 .3839-.4147.6246-.7481.4341l-2.5038-1.4307c-.1537-.0879-.3425-.0879-.4962 0l-3.0038 1.7165c-.1537.0878-.3425.0878-.4962 0l-3.00383-1.7165c-.15372-.0879-.34242-.0879-.49614 0l-2.50386 1.4307c-.33333.1905-.74807-.0502-.74807-.4341zm8-13.13838c0 .27614-.2239.5-.5.5h-4.5c-.27614 0-.5-.22386-.5-.5 0-.27615.22386-.5.5-.5h4.5c.2761 0 .5.22385.5.5zm2.5 3.49998c.2761 0 .5-.2238.5-.49998 0-.27615-.2239-.5-.5-.5h-7.5c-.27614 0-.5.22385-.5.5 0 .27618.22386.49998.5.49998zm-4 2.5c0 .2762-.2239.5-.5.5h-3c-.27614 0-.5-.2238-.5-.5 0-.2761.22386-.5.5-.5h3c.2761 0 .5.2239.5.5zm-.5 3.5c.2761 0 .5-.2238.5-.5 0-.2761-.2239-.5-.5-.5h-3c-.27614 0-.5.2239-.5.5 0 .2762.22386.5.5.5z" fill="rgb(0,0,0)" fill-rule="evenodd"/></svg>