<?xml version="1.0" encoding="iso-8859-1"?>
<!-- Generator: Adobe Illustrator 19.0.0, SVG Export Plug-In . SVG Version: 6.00 Build 0)  -->
<svg version="1.1" id="Capa_1" xmlns="http://www.w3.org/2000/svg" xmlns:xlink="http://www.w3.org/1999/xlink" x="0px" y="0px"
	 viewBox="0 0 508 508" style="enable-background:new 0 0 508 508;" xml:space="preserve">
<g>
	<g>
		<path d="M356.45,298.3c12.5-94.2-12.8-193.1-73.4-264.2l-29-34.1l-29.1,34.1c-60.5,71.1-85.8,170-73.3,264.2
			c-27.8,27.4-43.8,65-43.8,104.1c0,24.1,6,47.9,17.3,69.1l10.4,19.4l4.7-21.5c5.9-26.8,20.8-50.2,42.4-67
			c3.3,6.9,6.9,13.7,10.7,20.3l2.3,4.1h116.7l2.3-4.1c3.8-6.6,7.4-13.4,10.7-20.3c21.5,16.7,36.5,40.1,42.4,67l4.7,21.5l10.4-19.4
			c11.3-21.1,17.3-45,17.3-69C400.25,363.3,384.25,325.7,356.45,298.3z M237.35,44.6l16.7-19.6l16.7,19.6
			c10.9,12.8,20.5,26.5,28.9,41h-91.3C216.85,71.1,226.45,57.4,237.35,44.6z M131.05,444.4c-4.6-13.5-7-27.7-7-42
			c0-30.8,11.1-60.6,30.8-83.9c4.5,23.5,11.4,46.6,20.8,68.8C155.65,402,140.25,421.6,131.05,444.4z M302.95,410.5h-97.8
			c-52.8-94.5-53.1-214.6-5.6-308.7h108.9C356.15,195.9,355.75,316,302.95,410.5z M377.05,444.3c-9.2-22.7-24.6-42.4-44.7-57.1
			c9.4-22.1,16.3-45.2,20.8-68.8c19.7,23.3,30.9,53.1,30.9,83.9C384.05,416.7,381.65,430.9,377.05,444.3z"/>
	</g>
</g>
<g>
	<g>
		<rect x="245.95" y="345.5" width="16.3" height="16.2"/>
	</g>
</g>
<g>
	<g>
		<rect x="213.45" y="345.5" width="16.3" height="16.2"/>
	</g>
</g>
<g>
	<g>
		<rect x="278.45" y="345.5" width="16.3" height="16.2"/>
	</g>
</g>
<g>
	<g>
		<path d="M254.05,183.1c-22.4,0-40.6,18.2-40.6,40.6c0,22.4,18.2,40.6,40.6,40.6c22.4,0,40.6-18.2,40.6-40.6
			C294.65,201.3,276.45,183.1,254.05,183.1z M254.05,248.1c-13.4,0-24.4-10.9-24.4-24.4c0-13.4,11-24.4,24.4-24.4
			c13.4,0,24.4,10.9,24.4,24.4C278.45,237.1,267.55,248.1,254.05,248.1z"/>
	</g>
</g>
<g>
	<g>
		<rect x="245.95" y="443" width="16.2" height="40.6"/>
	</g>
</g>
<g>
	<g>
		<rect x="286.55" y="467.4" width="16.2" height="40.6"/>
	</g>
</g>
<g>
	<g>
		<rect x="205.35" y="467.4" width="16.2" height="40.6"/>
	</g>
</g>
<g>
</g>
<g>
</g>
<g>
</g>
<g>
</g>
<g>
</g>
<g>
</g>
<g>
</g>
<g>
</g>
<g>
</g>
<g>
</g>
<g>
</g>
<g>
</g>
<g>
</g>
<g>
</g>
<g>
</g>
</svg>
