<?xml version="1.0"?>
<svg xmlns="http://www.w3.org/2000/svg" viewBox="0 0 88 88" width="512" height="512"><g id="Screen_startup" data-name="Screen startup"><path d="M44,23a4,4,0,1,0-4-4A4.0039,4.0039,0,0,0,44,23Zm0-6a2,2,0,1,1-2,2A2.0027,2.0027,0,0,1,44,17Z"/><path d="M44,25a1,1,0,0,0-1,1v7a1,1,0,0,0,2,0V26A1,1,0,0,0,44,25Z"/><path d="M41,71h6a1,1,0,0,0,0-2H41a1,1,0,0,0,0,2Z"/><path d="M81,15H56a1,1,0,0,0,0,2H81a3.0033,3.0033,0,0,1,3,3V65H4V20a3.0033,3.0033,0,0,1,3-3H32a1,1,0,0,0,0-2H7a5.0059,5.0059,0,0,0-5,5V70a5.0059,5.0059,0,0,0,5,5H34.82L33.153,85H30a1,1,0,0,0,0,2H58a1,1,0,0,0,0-2H54.847L53.18,75H81a5.0059,5.0059,0,0,0,5-5V20A5.0059,5.0059,0,0,0,81,15ZM52.8193,85H35.1807l1.666-10H51.1533ZM84,70a3.0033,3.0033,0,0,1-3,3H7a3.0033,3.0033,0,0,1-3-3V67H84Z"/><path d="M32,21a1,1,0,0,0,0-2H7a1,1,0,0,0-1,1V62a1,1,0,0,0,1,1H81a1,1,0,0,0,1-1V20a1,1,0,0,0-1-1H56a1,1,0,0,0,0,2H80V49.5405a5.9507,5.9507,0,0,0-5.2972-1.3963,5.9946,5.9946,0,0,0-11.007-.9408A7.91,7.91,0,0,0,62,47a7.99,7.99,0,0,0-7.4215,5.0386A4.96,4.96,0,0,0,49,57a1,1,0,0,0,2,0,3,3,0,0,1,5.5986-1.5,1,1,0,1,0,1.73-1.002,4.9985,4.9985,0,0,0-1.8415-1.8319,5.9464,5.9464,0,0,1,6.5871-3.5644A5.9936,5.9936,0,0,0,63,50a1,1,0,0,0,2,0,4,4,0,1,1,7.708,1.5029,1,1,0,1,0,1.8535.752,5.96,5.96,0,0,0,.4246-2.11A3.9514,3.9514,0,0,1,80,54v7H8V54a3.9514,3.9514,0,0,1,5.0139-3.8547,5.96,5.96,0,0,0,.4246,2.11,1,1,0,1,0,1.8535-.752A4,4,0,1,1,23,50a1,1,0,0,0,2,0,5.9936,5.9936,0,0,0-.0747-.8983,5.9464,5.9464,0,0,1,6.5871,3.5644,4.9985,4.9985,0,0,0-1.8415,1.8319,1,1,0,1,0,1.73,1.002A3,3,0,0,1,37,57a1,1,0,0,0,2,0,4.96,4.96,0,0,0-5.5785-4.9614A7.99,7.99,0,0,0,26,47a7.91,7.91,0,0,0-1.6958.2034,5.9946,5.9946,0,0,0-11.007.9408A5.9507,5.9507,0,0,0,8,49.5405V21Z"/><path d="M25.543,28.11A1,1,0,0,0,25,29V42a1,1,0,0,0,1.457.89l8.59-4.412A11.2012,11.2012,0,0,0,37,41.384V45a1,1,0,0,0,1,1H50a1,1,0,0,0,1-1V41.384a11.2012,11.2012,0,0,0,1.9531-2.9064l8.59,4.412A1,1,0,0,0,63,42V29a1,1,0,0,0-.543-.89L54,23.769V22.042A27.8355,27.8355,0,0,0,44.6641,1.2529a.9968.9968,0,0,0-1.3282,0A27.8355,27.8355,0,0,0,34,22.042v1.727Zm8.8183,8.4707L27,40.3623V29.61l7-3.5928V33.76l0,.0064A12.4366,12.4366,0,0,0,34.3613,36.5811ZM49,44H39V42H49ZM61,29.61V40.3623l-7.3613-3.7812A12.4257,12.4257,0,0,0,54,33.7662l0-.0064V26.0176ZM36,22.042A25.84,25.84,0,0,1,44,3.3594,25.84,25.84,0,0,1,52,22.042V33.7578A9.3049,9.3049,0,0,1,49.5732,40H38.4268A9.2985,9.2985,0,0,1,36,33.7578V22.042Z"/><path d="M45,57V49a1,1,0,0,0-2,0v8a1,1,0,0,0,2,0Z"/><path d="M49,52V48a1,1,0,0,0-2,0v4a1,1,0,0,0,2,0Z"/><path d="M41,52V48a1,1,0,0,0-2,0v4a1,1,0,0,0,2,0Z"/></g></svg>
