<?xml version="1.0"?>
<svg xmlns="http://www.w3.org/2000/svg" viewBox="0 0 32 32" width="512" height="512"><g id="Layer_2" data-name="Layer 2"><path d="M5,14.26V27.74A3.26,3.26,0,0,0,8.26,31H23.75A3.26,3.26,0,0,0,27,27.75V14.26A3.26,3.26,0,0,0,23.74,11H20.06a1,1,0,0,0,0,2h3.68A1.25,1.25,0,0,1,25,14.26V27.74A1.25,1.25,0,0,1,23.74,29H8.25A1.25,1.25,0,0,1,7,27.75V14.26A1.25,1.25,0,0,1,8.26,13H12a1,1,0,1,0,0-2H8.26A3.26,3.26,0,0,0,5,14.26Z"/><path d="M16,22.31a1,1,0,0,0,1-1V4.13L20.42,7A1,1,0,0,0,21.7,5.42L16.53,1.14a.82.82,0,0,0-1.06,0L10.3,5.42A1,1,0,0,0,11.58,7L15,4.13V21.31A1,1,0,0,0,16,22.31Z"/></g></svg>
