<?xml version="1.0" encoding="iso-8859-1"?>
<!-- Generator: Adobe Illustrator 19.0.0, SVG Export Plug-In . SVG Version: 6.00 Build 0)  -->
<svg version="1.1" id="Capa_1" xmlns="http://www.w3.org/2000/svg" xmlns:xlink="http://www.w3.org/1999/xlink" x="0px" y="0px"
	 viewBox="0 0 409.6 409.6" style="enable-background:new 0 0 409.6 409.6;" xml:space="preserve">
<g>
	<g>
		<path d="M375.465,0H34.135C15.365,0,0,15.365,0,34.135V153.6c0,18.765,15.365,34.135,34.135,34.135H51.2V51.2h34.135v136.535
			h34.13V51.2H153.6v136.535h221.865c18.77,0,34.135-15.37,34.135-34.135V34.135C409.6,15.365,394.235,0,375.465,0z M204.8,85.335
			c-9.436,0-17.065-7.634-17.065-17.07c0-9.431,7.629-17.065,17.065-17.065s17.065,7.634,17.065,17.065
			C221.865,77.701,214.236,85.335,204.8,85.335z M273.065,85.335c-9.431,0-17.065-7.634-17.065-17.07
			c0-9.431,7.634-17.065,17.065-17.065c9.436,0,17.07,7.634,17.07,17.065C290.135,77.701,282.501,85.335,273.065,85.335z
			 M341.335,85.335c-9.436,0-17.07-7.634-17.07-17.07c0-9.431,7.634-17.065,17.07-17.065c9.431,0,17.065,7.634,17.065,17.065
			C358.4,77.701,350.766,85.335,341.335,85.335z"/>
	</g>
</g>
<g>
	<g>
		<path d="M375.465,221.865H34.135C15.365,221.865,0,237.235,0,256v119.465c0,18.77,15.365,34.135,34.135,34.135H51.2V273.065
			h34.135V409.6h34.13V273.065H153.6V409.6h221.865c18.77,0,34.135-15.365,34.135-34.135V256
			C409.6,237.235,394.235,221.865,375.465,221.865z M204.8,307.2c-9.436,0-17.065-7.634-17.065-17.065
			c0-9.436,7.629-17.07,17.065-17.07s17.065,7.634,17.065,17.07C221.865,299.566,214.236,307.2,204.8,307.2z M273.065,307.2
			c-9.431,0-17.065-7.634-17.065-17.065c0-9.436,7.634-17.07,17.065-17.07c9.436,0,17.07,7.634,17.07,17.07
			C290.135,299.566,282.501,307.2,273.065,307.2z M341.335,307.2c-9.436,0-17.07-7.634-17.07-17.065
			c0-9.436,7.634-17.07,17.07-17.07c9.431,0,17.065,7.634,17.065,17.07C358.4,299.566,350.766,307.2,341.335,307.2z"/>
	</g>
</g>
<g>
</g>
<g>
</g>
<g>
</g>
<g>
</g>
<g>
</g>
<g>
</g>
<g>
</g>
<g>
</g>
<g>
</g>
<g>
</g>
<g>
</g>
<g>
</g>
<g>
</g>
<g>
</g>
<g>
</g>
</svg>
