<?xml version="1.0" encoding="iso-8859-1"?>
<!-- Generator: Adobe Illustrator 19.0.0, SVG Export Plug-In . SVG Version: 6.00 Build 0)  -->
<svg version="1.1" id="Capa_1" xmlns="http://www.w3.org/2000/svg" xmlns:xlink="http://www.w3.org/1999/xlink" x="0px" y="0px"
	 viewBox="0 0 512 512" style="enable-background:new 0 0 512 512;" xml:space="preserve">
<g>
	<g>
		<path d="M477.606,201c-1.985,0-3.716-1.287-4.208-3.132c-5.078-19.046-12.664-37.363-22.549-54.445
			c-0.97-1.675-0.667-3.824,0.74-5.231c6.496-6.496,10.074-15.134,10.074-24.32c0-9.188-3.578-17.824-10.074-24.319l-29.141-29.141
			c-6.496-6.497-15.134-10.075-24.321-10.075s-17.824,3.578-24.324,10.079c-1.402,1.401-3.552,1.705-5.229,0.734
			c-17.08-9.884-35.397-17.47-54.442-22.548c-1.845-0.492-3.133-2.223-3.133-4.208C311,15.429,295.571,0,276.606,0h-41.213
			C216.429,0,201,15.429,201,34.394c0,1.985-1.288,3.716-3.132,4.208c-19.046,5.078-37.363,12.664-54.445,22.549
			c-1.676,0.971-3.824,0.667-5.23-0.739c-6.496-6.497-15.134-10.075-24.32-10.075c-9.188,0-17.825,3.578-24.32,10.074l-29.142,29.14
			c-6.497,6.496-10.075,15.133-10.075,24.32c0,9.187,3.578,17.824,10.079,24.325c1.402,1.402,1.705,3.553,0.735,5.228
			c-9.884,17.079-17.471,35.396-22.55,54.445c-0.491,1.844-2.222,3.131-4.207,3.131C15.429,201,0,216.429,0,235.394v41.213
			C0,295.571,15.429,311,34.394,311c1.985,0,3.716,1.287,4.208,3.132c5.078,19.048,12.665,37.365,22.549,54.444
			c0.97,1.675,0.667,3.825-0.739,5.231c-6.497,6.496-10.075,15.134-10.075,24.32c0,9.188,3.578,17.825,10.074,24.32l29.142,29.142
			c13.409,13.41,35.229,13.412,48.645-0.005c1.403-1.402,3.553-1.706,5.228-0.736c17.079,9.885,35.396,17.472,54.443,22.55
			c1.845,0.492,3.133,2.223,3.133,4.208C201,496.571,216.429,512,235.394,512h41.213C295.571,512,311,496.571,311,477.606
			c0-1.985,1.288-3.716,3.132-4.208c19.048-5.078,37.365-12.665,54.444-22.55c1.67-0.969,3.823-0.669,5.232,0.741
			c13.411,13.41,35.23,13.41,48.64,0l29.141-29.141c6.497-6.496,10.075-15.134,10.075-24.321c0-9.187-3.578-17.824-10.079-24.324
			c-1.402-1.402-1.705-3.552-0.734-5.229c9.884-17.08,17.47-35.397,22.549-54.444c0.491-1.844,2.222-3.131,4.207-3.131
			C496.571,311,512,295.571,512,276.606v-41.213C512,216.429,496.571,201,477.606,201z M256,401c-79.953,0-145-65.047-145-145
			s65.047-145,145-145s145,65.047,145,145S335.953,401,256,401z"/>
	</g>
</g>
<g>
</g>
<g>
</g>
<g>
</g>
<g>
</g>
<g>
</g>
<g>
</g>
<g>
</g>
<g>
</g>
<g>
</g>
<g>
</g>
<g>
</g>
<g>
</g>
<g>
</g>
<g>
</g>
<g>
</g>
</svg>
