<svg id="Capa_1" enable-background="new 0 0 512.003 512.003" height="512" viewBox="0 0 512.003 512.003" width="512" xmlns="http://www.w3.org/2000/svg"><g><circle cx="211" cy="421.002" r="45"/><circle cx="391" cy="421.002" r="45"/><path d="m15 76.002h64.604c.835 3.007 76.745 276.318 71.938 259.014 1.802 6.489 7.72 10.986 14.458 10.986h270c6.694 0 12.583-4.438 14.429-10.884l61-210c1.289-4.526.381-9.39-2.446-13.154-2.842-3.75-7.28-5.962-11.982-5.962h-377.935l-13.608-49.014c-1.802-6.489-7.72-10.986-14.458-10.986h-76c-8.291 0-15 6.709-15 15s6.709 15 15 15zm361 210h-150c-8.291 0-15-6.709-15-15s6.709-15 15-15h150c8.291 0 15 6.709 15 15s-6.709 15-15 15zm-180-90h210c8.291 0 15 6.709 15 15s-6.709 15-15 15h-210c-8.291 0-15-6.709-15-15s6.709-15 15-15z"/></g></svg>