<?xml version="1.0" encoding="iso-8859-1"?>
<!-- Generator: Adobe Illustrator 19.0.0, SVG Export Plug-In . SVG Version: 6.00 Build 0)  -->
<svg version="1.1" id="Layer_1" xmlns="http://www.w3.org/2000/svg" xmlns:xlink="http://www.w3.org/1999/xlink" x="0px" y="0px"
	 viewBox="0 0 511.999 511.999" style="enable-background:new 0 0 511.999 511.999;" xml:space="preserve">
<g>
	<g>
		<path d="M147.661,261.917c-5.813,0-10.524,4.711-10.524,10.524v99.119c0,5.813,4.711,10.524,10.524,10.524
			c5.813,0,10.524-4.713,10.524-10.524v-99.119C158.185,266.628,153.474,261.917,147.661,261.917z"/>
	</g>
</g>
<g>
	<g>
		<path d="M208.634,261.917c-5.813,0-10.524,4.711-10.524,10.524v99.119c0,5.813,4.711,10.524,10.524,10.524
			s10.524-4.713,10.524-10.524v-99.119C219.158,266.628,214.447,261.917,208.634,261.917z"/>
	</g>
</g>
<g>
	<g>
		<path d="M411.302,292.33l10.037-42.555h6.912c13.275,0,24.074-10.799,24.074-24.074v-33.752c0-13.275-10.799-24.074-24.074-24.074
			h-43.323L338.155,16.949c-3.93-12.677-17.438-19.797-30.123-15.867l-5.392,1.672c-12.68,3.93-19.798,17.443-15.867,30.121
			l41.838,135.001H149.632l41.837-135c3.929-12.68-3.189-26.191-15.866-30.122l-5.396-1.672c-12.675-3.931-26.19,3.191-30.12,15.869
			L93.315,167.875H49.991c-13.275,0-24.074,10.799-24.074,24.074v33.752c0,13.275,10.799,24.074,24.074,24.074h6.912l32.599,138.224
			c4.481,19.004,21.247,32.276,40.771,32.276h131.475c10.059,52.183,56.066,91.724,111.142,91.724
			c62.414,0,113.192-50.778,113.192-113.192C486.082,349.872,454.865,308.095,411.302,292.33z M320.056,272.441v26.287
			c-15.94,8.449-29.63,20.592-39.925,35.285v-61.572c0-5.813-4.711-10.524-10.524-10.524s-10.524,4.711-10.524,10.524v99.119
			c0,2.581,0.932,4.943,2.474,6.773c-1.219,6.643-1.86,13.485-1.86,20.475c0,0.14,0.005,0.278,0.006,0.417H130.273
			c-9.714,0-18.054-6.602-20.284-16.057l-31.46-133.394h321.182l-8.793,37.282c-5.874-0.944-11.894-1.442-18.03-1.442
			c-11.032,0-21.697,1.593-31.785,4.55v-17.723c0-5.813-4.711-10.524-10.524-10.524
			C324.766,261.918,320.056,266.628,320.056,272.441z M416.309,427.343c4.11,4.11,4.11,10.775,0,14.885
			c-2.056,2.055-4.749,3.083-7.442,3.083s-5.386-1.028-7.442-3.083l-28.535-28.535l-28.535,28.535
			c-2.056,2.055-4.749,3.083-7.442,3.083s-5.386-1.028-7.442-3.083c-4.11-4.11-4.11-10.775,0-14.885l28.535-28.535l-28.535-28.535
			c-4.11-4.11-4.11-10.775,0-14.885c4.112-4.109,10.774-4.109,14.885,0l28.535,28.535l28.535-28.535
			c4.112-4.109,10.774-4.109,14.885,0c4.11,4.11,4.11,10.775,0,14.885l-28.535,28.535L416.309,427.343z"/>
	</g>
</g>
<g>
</g>
<g>
</g>
<g>
</g>
<g>
</g>
<g>
</g>
<g>
</g>
<g>
</g>
<g>
</g>
<g>
</g>
<g>
</g>
<g>
</g>
<g>
</g>
<g>
</g>
<g>
</g>
<g>
</g>
</svg>
