<?xml version="1.0" encoding="iso-8859-1"?>
<!-- Generator: Adobe Illustrator 19.0.0, SVG Export Plug-In . SVG Version: 6.00 Build 0)  -->
<svg version="1.1" id="Capa_1" xmlns="http://www.w3.org/2000/svg" xmlns:xlink="http://www.w3.org/1999/xlink" x="0px" y="0px"
	 viewBox="0 0 64 64" style="enable-background:new 0 0 64 64;" xml:space="preserve">
<g>
	<g id="venture-risk-climb-mountain-success_1_">
		<path d="M61,30V9V1c0-0.332-0.165-0.642-0.439-0.828c-0.275-0.186-0.624-0.224-0.932-0.101l-10,4C49.249,4.224,49,4.591,49,5
			s0.249,0.776,0.628,0.929L59,9.677V30h-1c-0.265,0-0.52,0.105-0.707,0.293L39.5,48.086l-3.793-3.793
			c-0.391-0.391-1.023-0.391-1.414,0L22.5,56.086l-7.293-7.293c-0.391-0.391-1.023-0.391-1.414,0l-13.5,13.5
			C0.105,62.48,0,62.734,0,63v1h2v-0.586l12.5-12.5l7.293,7.293c0.391,0.391,1.023,0.391,1.414,0L35,46.414l3.793,3.793
			c0.391,0.391,1.023,0.391,1.414,0L58.414,32H64v-2H61z M52.692,5L59,2.477v5.047L52.692,5z"/>
		<path d="M1.726,43.687c2.424-2.562,7.46-0.953,10.469,0.007c1.247,0.398,2.446,0.597,3.579,0.597c1.153,0,2.229-0.228,3.226-0.636
			V50c0,0.553,0.448,1,1,1h5c0.552,0,1-0.447,1-1v-9.717c0.221-0.33,0.63-0.588,1.253-0.893c0.201-0.099,0.406-0.19,0.611-0.281
			c0.573-0.256,1.166-0.521,1.72-0.932c0.653-0.484,1.138-1.317,1.331-2.177H33v6c0,0.553,0.448,1,1,1h5c0.552,0,1-0.447,1-1v-8
			c0-2.757-2.243-5-5-5h-6v-3h5c2.757,0,5-2.243,5-5v-9c0-0.553-0.448-1-1-1h-4c-0.552,0-1,0.447-1,1v8h-4.89
			c0.513-0.884,0.812-1.907,0.812-3c0-3.309-2.691-6-6-6s-6,2.691-6,6c0,1.002,0.25,1.945,0.686,2.777
			c-3.378,0.996-6.423,3.234-8.845,6.551c-1.076,1.473-1.873,3.151-2.644,4.773c-0.206,0.434-0.411,0.865-0.619,1.288
			c-0.469,0.952-0.911,1.992-1.339,2.998c-1.072,2.518-2.179,5.121-3.886,6.925l-0.001,0.001c-0.38,0.401-0.362,1.034,0.039,1.414
			C0.714,44.105,1.348,44.089,1.726,43.687z M19,30.742l-1.165-1.164L19,28.414V30.742z M28.394,36.569
			c-0.379,0.281-0.849,0.49-1.345,0.713c-0.227,0.101-0.453,0.202-0.675,0.311c-0.123,0.06-0.248,0.13-0.374,0.196V36h2.81
			C28.698,36.236,28.555,36.45,28.394,36.569z M34,22c0.552,0,1-0.447,1-1v-8h2v8c0,1.654-1.346,3-3,3h-6c-0.552,0-1,0.447-1,1v5
			c0,0.553,0.448,1,1,1h7c1.654,0,3,1.346,3,3v7h-3v-6c0-0.553-0.448-1-1-1h-9c-0.552,0-1,0.447-1,1v14h-3V26
			c0-0.404-0.244-0.77-0.617-0.924c-0.374-0.156-0.803-0.069-1.09,0.217l-3.579,3.578c-0.188,0.188-0.293,0.441-0.293,0.707
			s0.105,0.52,0.293,0.707l2.793,2.793l-1.586,1.586L13.957,31.7c-1.169-1.17-1.169-3.073,0-4.243l5.538-5.538
			C20.468,22.598,21.648,23,22.921,23c0.027,0,0.052-0.004,0.079-0.004V29h2v-6.379c0.436-0.162,0.849-0.368,1.231-0.621H34z
			 M22.921,13c2.206,0,4,1.794,4,4s-1.794,4-4,4s-4-1.794-4-4S20.716,13,22.921,13z M6.001,36.17
			c0.437-1.026,0.849-1.995,1.293-2.898c0.212-0.431,0.421-0.87,0.631-1.312c0.731-1.539,1.487-3.131,2.452-4.452
			c1.224-1.676,3.107-3.696,5.698-4.996l-3.533,3.533c-1.949,1.949-1.949,5.122,0,7.071l3.671,3.671
			c0.391,0.391,1.023,0.391,1.414,0L19,35.414v6.018c-2.102,1.233-4.503,0.898-6.197,0.358c-2.353-0.752-5.786-1.846-8.772-1.375
			C4.773,39.055,5.393,37.6,6.001,36.17z"/>
	</g>
	<g id="Layer_1_32_">
	</g>
</g>
<g>
</g>
<g>
</g>
<g>
</g>
<g>
</g>
<g>
</g>
<g>
</g>
<g>
</g>
<g>
</g>
<g>
</g>
<g>
</g>
<g>
</g>
<g>
</g>
<g>
</g>
<g>
</g>
<g>
</g>
</svg>
