<svg height="512" viewBox="0 0 25 25" width="512" xmlns="http://www.w3.org/2000/svg"><g><path d="m20 2.5h-15c-1.378 0-2.5 1.121-2.5 2.5v15c0 1.379 1.122 2.5 2.5 2.5h15c1.378 0 2.5-1.121 2.5-2.5v-15c0-1.379-1.122-2.5-2.5-2.5zm1.5 2.5v1.5h-8.5v-3h7c.827 0 1.5.673 1.5 1.5zm-16.5-1.5h7v3h-8.5v-1.5c0-.827.673-1.5 1.5-1.5zm-1.5 16.5v-12.5h8.5v14h-7c-.827 0-1.5-.673-1.5-1.5zm16.5 1.5h-7v-14h8.5v12.5c0 .827-.673 1.5-1.5 1.5z"/><path d="m6 12.5h3c.276 0 .5-.224.5-.5s-.224-.5-.5-.5h-3c-.276 0-.5.224-.5.5s.224.5.5.5z"/><path d="m9 14.5h-3c-.276 0-.5.224-.5.5s.224.5.5.5h3c.276 0 .5-.224.5-.5s-.224-.5-.5-.5z"/><path d="m9 17.5h-3c-.276 0-.5.224-.5.5s.224.5.5.5h3c.276 0 .5-.224.5-.5s-.224-.5-.5-.5z"/><path d="m19 11.5h-3c-.276 0-.5.224-.5.5s.224.5.5.5h3c.276 0 .5-.224.5-.5s-.224-.5-.5-.5z"/><path d="m19 14.5h-3c-.276 0-.5.224-.5.5s.224.5.5.5h3c.276 0 .5-.224.5-.5s-.224-.5-.5-.5z"/><path d="m19 17.5h-3c-.276 0-.5.224-.5.5s.224.5.5.5h3c.276 0 .5-.224.5-.5s-.224-.5-.5-.5z"/></g></svg>