<?xml version="1.0" encoding="UTF-8"?>
<svg width="40px" height="26px" viewBox="0 0 40 26" version="1.1" xmlns="http://www.w3.org/2000/svg" xmlns:xlink="http://www.w3.org/1999/xlink">
    <!-- Generator: Sketch 52.6 (67491) - http://www.bohemiancoding.com/sketch -->
    <title>Group</title>
    <desc>Created with Sketch.</desc>
    <g id="Page-1" stroke="none" stroke-width="1" fill="none" fill-rule="evenodd">
        <g id="Group">
            <path d="M38.3834711,11.2826446 L33.2429752,14.5355372 L36.3570248,8.87272727 C35.4752433,8.16917832 34.3841689,7.77950891 33.2561983,7.76528926 L33.1735537,7.76528926 C32.8170305,7.77226064 32.4606414,7.74569747 32.1090909,7.68595041 L30.3702479,8.79008264 L31.1140496,7.43471074 C29.8821805,7.00233101 28.8179706,6.19260612 28.0727273,5.12066116 L24.9619835,7.10413223 L26.9256198,3.52727273 C25.107438,1.34214876 22.6545455,0.00330578512 19.953719,0.00330578512 C16.7173554,0.00330578512 13.8347107,1.92727273 11.9735537,4.92892562 C10.850013,6.75880367 8.83035095,7.84437204 6.68429752,7.77190083 L6.51239669,7.77190083 C2.93884298,7.77190083 0.0429752066,11.8214876 0.0429752066,16.8198347 C0.0429752066,21.8181818 2.93884298,25.8677686 6.51239669,25.8677686 C7.29762144,25.8652747 8.07038018,25.671234 8.76363636,25.3024793 C11.2260036,24.1079219 14.0881571,24.0523461 16.5950413,25.1504132 C18.711282,26.1011309 21.1319575,26.1071405 23.2528926,25.1669421 C25.7384448,24.0896851 28.569139,24.1439592 31.0115702,25.3157025 C31.70061,25.6752854 32.4657586,25.8645889 33.2429752,25.8677686 C36.8165289,25.8677686 39.7123967,21.8181818 39.7123967,16.8198347 C39.7408737,14.8918558 39.2838744,12.9876923 38.3834711,11.2826446 Z" id="Path" fill="#A8A8A8"></path>
            <path d="M28.7140496,24.522314 C26.8473224,24.1691168 24.9177433,24.3785285 23.1702479,25.1239669 C21.0533186,26.0717991 18.6326318,26.0717991 16.5157025,25.1239669 C14.0094464,24.0227526 11.145915,24.0783552 8.68429752,25.2760331 C7.98943151,25.6436912 7.21588041,25.8376461 6.42975207,25.8413223 C3.25619835,25.8413223 0.614876033,22.6413223 0.0661157025,18.4231405 C0.701109504,17.9620058 1.24009239,17.3814763 1.65289256,16.7140496 C3.51404959,13.7157025 6.39669421,11.7917355 9.63305785,11.7917355 C12.8694215,11.7917355 15.722314,13.6760331 17.5801653,16.6512397 C18.710936,18.4803227 20.7192486,19.581129 22.8694215,19.5504132 L22.9520661,19.5504132 C25.461157,19.5438017 27.6495868,21.5669421 28.7140496,24.522314 Z" id="Path" fill="#000000" opacity="0.099405692"></path>
        </g>
    </g>
</svg>