<?xml version="1.0" encoding="UTF-8"?>
<svg width="609px" height="569px" viewBox="0 0 609 569" version="1.1" xmlns="http://www.w3.org/2000/svg" xmlns:xlink="http://www.w3.org/1999/xlink">
    <!-- Generator: Sketch 52.6 (67491) - http://www.bohemiancoding.com/sketch -->
    <title>Group 2</title>
    <desc>Created with Sketch.</desc>
    <g id="Page-1" stroke="none" stroke-width="1" fill="none" fill-rule="evenodd">
        <g id="Group-2" transform="translate(-45.000000, -218.000000)">
            <rect id="Rectangle" fill-opacity="0" fill="#A87070" x="0" y="188" width="691" height="620"></rect>
            <g id="undraw_businessman" transform="translate(10.000000, 0.000000)" fill="#A8A8A8">
                <ellipse id="Oval" opacity="0.1" cx="339.25" cy="718.32" rx="303.97" ry="41.12"></ellipse>
                <path d="M189.76,313.83 C189.76,313.83 201.48,307.17 204.17,308.5 C206.86,309.83 189.76,313.83 189.76,313.83 Z" id="Path" opacity="0.1"></path>
                <path d="M191.81,323.04 C191.81,323.04 199.21,323.57 202.72,322.04 C206.23,320.51 191.81,323.04 191.81,323.04 Z" id="Path" opacity="0.1"></path>
                <path d="M637.082519,254.111393 C637.082519,254.111393 552.892519,249.001393 562.812519,308.001393 C562.812519,308.001393 560.812519,318.431393 570.292519,323.171393 C570.292519,323.171393 570.442519,318.791393 578.932519,320.281393 C581.951765,320.782464 585.019103,320.930126 588.072519,320.721393 C592.194609,320.441131 596.114353,318.830421 599.242519,316.131393 C599.242519,316.131393 622.912519,306.361393 632.112519,267.671393 C632.112519,267.671393 638.922519,259.231393 638.652519,257.061393 L624.442519,263.131393 C624.442519,263.131393 629.302519,273.381393 625.442519,281.901393 C625.442519,281.901393 624.982519,263.501393 622.252519,263.901393 C621.692519,263.991393 614.862519,267.451393 614.862519,267.451393 C614.862519,267.451393 623.222519,285.311393 616.912519,298.281393 C616.912519,298.281393 619.312519,276.281393 612.262519,268.741393 L602.262519,274.581393 C602.262519,274.581393 612.032519,293.021393 605.412519,308.071393 C605.412519,308.071393 607.112519,284.991393 600.162519,276.001393 L591.102519,283.071393 C591.102519,283.071393 600.272519,301.251393 594.682519,313.731393 C594.682519,313.731393 593.952519,286.861393 589.132519,284.831393 C589.132519,284.831393 581.212519,291.831393 580.002519,294.691393 C580.002519,294.691393 586.282519,307.891393 582.382519,314.851393 C582.382519,314.851393 579.992519,296.951393 578.032519,296.851393 C578.032519,296.851393 570.132519,308.711393 569.312519,316.851393 C569.312519,316.851393 569.652519,304.751393 576.122519,295.721393 C576.122519,295.721393 568.482519,297.031393 564.022519,301.991393 C564.022519,301.991393 565.252519,293.601393 578.022519,292.871393 C578.022519,292.871393 584.542519,283.871393 586.292519,283.321393 C586.292519,283.321393 573.542519,282.261393 565.812519,285.681393 C565.812519,285.681393 572.622519,277.771393 588.632519,281.371393 L597.632519,274.071393 C597.632519,274.071393 580.842519,271.771393 573.732519,274.311393 C573.732519,274.311393 581.922519,267.311393 600.042519,272.411393 L609.782519,266.581393 C609.782519,266.581393 595.472519,263.501393 586.952519,264.581393 C586.952519,264.581393 595.952519,259.731393 612.632519,264.991393 L619.632519,261.861393 C619.632519,261.861393 609.152519,259.801393 606.082519,259.481393 C603.012519,259.161393 602.842519,258.301393 602.842519,258.301393 C609.485325,257.194471 616.304998,257.952597 622.542519,260.491393 C622.542519,260.491393 637.342519,255.001393 637.082519,254.111393 Z" id="Path"></path>
                <path d="M123.920845,525.04922 C123.920845,525.04922 85.9208446,522.75922 90.3608446,549.41922 C90.3608446,549.41922 89.4708446,554.12922 93.7408446,556.26922 C93.7408446,556.26922 93.8108446,554.26922 97.6408446,554.95922 C99.0075761,555.194001 100.397846,555.261164 101.780845,555.15922 C103.627679,555.021012 105.380896,554.291674 106.780845,553.07922 C106.780845,553.07922 117.470845,548.65922 121.630845,531.17922 C121.630845,531.17922 124.710845,527.36922 124.630845,526.38922 L118.190845,529.12922 C118.190845,529.12922 120.380845,533.75922 118.660845,537.60922 C118.660845,537.60922 118.450845,529.29922 117.210845,529.48922 C116.960845,529.48922 113.880845,531.09922 113.880845,531.09922 C113.880845,531.09922 117.650845,539.16922 114.800845,545.02922 C114.800845,545.02922 115.890845,535.08922 112.700845,531.67922 L108.190845,534.31922 C108.190845,534.31922 112.600845,542.64922 109.610845,549.44922 C109.610845,549.44922 110.380845,539.01922 107.240845,534.95922 L103.150845,538.15922 C103.150845,538.15922 107.290845,546.36922 104.760845,552.00922 C104.760845,552.00922 104.430845,539.86922 102.260845,538.94922 C102.260845,538.94922 98.6808446,542.10922 98.1308446,543.40922 C98.1308446,543.40922 100.970845,549.40922 99.2108446,552.51922 C99.2108446,552.51922 98.1308446,544.42922 97.2108446,544.38922 C97.2108446,544.38922 93.6408446,549.74922 93.2708446,553.38922 C93.4439643,549.994297 94.5060932,546.704456 96.3508446,543.84922 C94.2899519,544.237213 92.3881192,545.22116 90.8808446,546.67922 C90.8808446,546.67922 91.4408446,542.88922 97.2308446,542.55922 C97.2308446,542.55922 100.180845,538.48922 100.970845,538.24922 C100.970845,538.24922 95.2108446,537.75922 91.7108446,539.30922 C91.7108446,539.30922 94.7908446,535.73922 102.020845,537.30922 L106.020845,534.00922 C106.020845,534.00922 98.4308446,533.00922 95.2208446,534.11922 C95.2208446,534.11922 98.9208446,530.95922 107.100845,533.25922 L111.510845,530.62922 C111.510845,530.62922 105.040845,529.23922 101.190845,529.73922 C101.190845,529.73922 105.250845,527.54922 112.800845,529.91922 L115.940845,528.50922 C115.940845,528.50922 111.210845,527.57922 109.820845,527.42922 C108.430845,527.27922 108.360845,526.89922 108.360845,526.89922 C111.362983,526.406169 114.44298,526.752237 117.260845,527.89922 C117.260845,527.89922 124.040845,525.46922 123.920845,525.04922 Z" id="Path"></path>
                <path d="M310.920845,594.04922 C310.920845,594.04922 272.920845,591.75922 277.360845,618.41922 C277.360845,618.41922 276.470845,623.12922 280.740845,625.26922 C280.740845,625.26922 280.810845,623.26922 284.640845,623.95922 C286.007576,624.194001 287.397846,624.261164 288.780845,624.15922 C290.627679,624.021012 292.380896,623.291674 293.780845,622.07922 C293.780845,622.07922 304.470845,617.65922 308.630845,600.17922 C308.630845,600.17922 311.710845,596.36922 311.630845,595.38922 L305.190845,598.12922 C305.190845,598.12922 307.380845,602.75922 305.660845,606.60922 C305.660845,606.60922 305.450845,598.29922 304.210845,598.48922 C303.960845,598.48922 300.880845,600.09922 300.880845,600.09922 C300.880845,600.09922 304.650845,608.16922 301.800845,614.02922 C301.800845,614.02922 302.890845,604.08922 299.700845,600.67922 L295.190845,603.31922 C295.190845,603.31922 299.600845,611.64922 296.610845,618.44922 C296.610845,618.44922 297.380845,608.01922 294.240845,603.95922 L290.150845,607.15922 C290.150845,607.15922 294.290845,615.36922 291.760845,621.00922 C291.760845,621.00922 291.430845,608.86922 289.260845,607.94922 C289.260845,607.94922 285.680845,611.10922 285.130845,612.40922 C285.130845,612.40922 287.970845,618.40922 286.210845,621.51922 C286.210845,621.51922 285.130845,613.42922 284.210845,613.38922 C284.210845,613.38922 280.640845,618.74922 280.270845,622.38922 C280.443964,618.994297 281.506093,615.704456 283.350845,612.84922 C281.289952,613.237213 279.388119,614.22116 277.880845,615.67922 C277.880845,615.67922 278.440845,611.88922 284.230845,611.55922 C284.230845,611.55922 287.180845,607.48922 287.970845,607.24922 C287.970845,607.24922 282.210845,606.75922 278.710845,608.30922 C278.710845,608.30922 281.790845,604.73922 289.020845,606.30922 L293.020845,603.00922 C293.020845,603.00922 285.430845,602.00922 282.220845,603.11922 C282.220845,603.11922 285.920845,599.95922 294.100845,602.25922 L298.510845,599.62922 C298.510845,599.62922 292.040845,598.23922 288.190845,598.73922 C288.190845,598.73922 292.250845,596.54922 299.800845,598.91922 L302.940845,597.50922 C302.940845,597.50922 298.210845,596.57922 296.820845,596.42922 C295.430845,596.27922 295.360845,595.89922 295.360845,595.89922 C298.362983,595.406169 301.44298,595.752237 304.260845,596.89922 C304.260845,596.89922 311.040845,594.46922 310.920845,594.04922 Z" id="Path"></path>
                <path d="M188.920845,218.04922 C188.920845,218.04922 150.920845,215.75922 155.360845,242.41922 C155.360845,242.41922 154.470845,247.12922 158.740845,249.26922 C158.740845,249.26922 158.810845,247.26922 162.640845,247.95922 C164.007576,248.194001 165.397846,248.261164 166.780845,248.15922 C168.627679,248.021012 170.380896,247.291674 171.780845,246.07922 C171.780845,246.07922 182.470845,241.65922 186.630845,224.17922 C186.630845,224.17922 189.710845,220.36922 189.630845,219.38922 L183.190845,222.12922 C183.190845,222.12922 185.380845,226.75922 183.660845,230.60922 C183.660845,230.60922 183.450845,222.29922 182.210845,222.48922 C181.960845,222.48922 178.880845,224.09922 178.880845,224.09922 C178.880845,224.09922 182.650845,232.16922 179.800845,238.02922 C179.800845,238.02922 180.890845,228.08922 177.700845,224.67922 L173.190845,227.31922 C173.190845,227.31922 177.600845,235.64922 174.610845,242.44922 C174.610845,242.44922 175.380845,232.01922 172.240845,227.95922 L168.150845,231.15922 C168.150845,231.15922 172.290845,239.36922 169.760845,245.00922 C169.760845,245.00922 169.430845,232.86922 167.260845,231.94922 C167.260845,231.94922 163.680845,235.10922 163.130845,236.40922 C163.130845,236.40922 165.970845,242.40922 164.210845,245.51922 C164.210845,245.51922 163.130845,237.42922 162.210845,237.38922 C162.210845,237.38922 158.640845,242.74922 158.270845,246.38922 C158.443964,242.994297 159.506093,239.704456 161.350845,236.84922 C159.289952,237.237213 157.388119,238.22116 155.880845,239.67922 C155.880845,239.67922 156.440845,235.88922 162.230845,235.55922 C162.230845,235.55922 165.180845,231.48922 165.970845,231.24922 C165.970845,231.24922 160.210845,230.75922 156.710845,232.30922 C156.710845,232.30922 159.790845,228.73922 167.020845,230.30922 L171.020845,227.00922 C171.020845,227.00922 163.430845,226.00922 160.220845,227.11922 C160.220845,227.11922 163.920845,223.95922 172.100845,226.25922 L176.510845,223.62922 C176.510845,223.62922 170.040845,222.23922 166.190845,222.73922 C166.190845,222.73922 170.250845,220.54922 177.800845,222.91922 L180.940845,221.50922 C180.940845,221.50922 176.210845,220.57922 174.820845,220.42922 C173.430845,220.27922 173.360845,219.89922 173.360845,219.89922 C176.362983,219.406169 179.44298,219.752237 182.260845,220.89922 C182.260845,220.89922 189.040845,218.46922 188.920845,218.04922 Z" id="Path-Copy"></path>
                <ellipse id="Oval" opacity="0.1" cx="508.93" cy="660.09" rx="26.93" ry="4.55"></ellipse>
                <ellipse id="Oval" opacity="0.1" cx="338.93" cy="662.55" rx="26.93" ry="4.55"></ellipse>
                <ellipse id="Oval" opacity="0.1" cx="164.93" cy="771.708406" rx="26.93" ry="4.55"></ellipse>
                <ellipse id="Oval" opacity="0.1" cx="61.93" cy="676.55" rx="26.93" ry="4.55"></ellipse>
                <ellipse id="Oval" opacity="0.1" cx="433.93" cy="781.55" rx="26.93" ry="4.55"></ellipse>
                <ellipse id="Oval" cx="602.66" cy="729.64" rx="40.21" ry="6.8"></ellipse>
                <path d="M619.28,718.52 C621.112298,717.025429 622.447827,715.00993 623.11,712.74 C623.61,710.44 622.63,707.74 620.43,706.85 C617.97,705.91 615.34,707.61 613.35,709.33 C611.36,711.05 609.07,713.02 606.46,712.66 C609.192349,710.184329 610.425964,706.456915 609.71,702.84 C609.592829,702.103392 609.278366,701.412264 608.8,700.84 C607.44,699.38 604.96,700.01 603.33,701.16 C598.13,704.82 596.68,711.88 596.65,718.24 C596.13,715.94 596.57,713.55 596.55,711.24 C596.53,708.93 595.9,706.24 593.91,705.02 C592.682191,704.360285 591.303325,704.032804 589.91,704.07 C587.57,703.99 584.97,704.22 583.38,705.93 C581.38,708.05 581.91,711.62 583.63,713.93 C585.35,716.24 587.98,717.73 590.4,719.35 C592.338216,720.501225 593.989733,722.077518 595.23,723.96 C595.381653,724.218315 595.502479,724.493529 595.59,724.78 L610.25,724.78 C613.527863,723.108985 616.565265,721.003322 619.28,718.52 Z" id="Path"></path>
                <g id="Group" transform="translate(125.000000, 625.000000)">
                    <path d="M44.48,0.72 C44.48,0.72 49.98,7.9 41.95,18.72 C33.92,29.54 27.3,38.72 29.95,45.48 C29.95,45.48 42.07,25.34 51.95,25.06 C61.83,24.78 55.33,12.86 44.48,0.72 Z" id="Path"></path>
                    <path d="M44.48,0.72 C44.9611307,1.41132664 45.3384647,2.16936366 45.6,2.97 C55.22,14.27 60.35,24.82 51.1,25.09 C42.49,25.33 32.16,40.73 29.68,44.62 C29.7615681,44.9213757 29.8583589,45.2184234 29.97,45.51 C29.97,45.51 42.09,25.37 51.97,25.09 C61.85,24.81 55.33,12.86 44.48,0.72 Z" id="Path" opacity="0.1"></path>
                    <path d="M54.69,9.9 C54.69,12.43 54.41,14.48 54.06,14.48 C53.71,14.48 53.43,12.48 53.43,9.9 C53.43,7.32 53.78,8.56 54.13,8.56 C54.48,8.56 54.69,7.37 54.69,9.9 Z" id="Path"></path>
                    <path d="M58.2,12.92 C55.98,14.13 54.04,14.86 53.88,14.56 C53.72,14.26 55.37,13.02 57.59,11.81 C59.81,10.6 58.94,11.48 59.1,11.81 C59.26,12.14 60.42,11.72 58.2,12.92 Z" id="Path"></path>
                    <path d="M15.47,0.72 C15.47,0.72 9.97,7.9 18,18.72 C26.03,29.54 32.65,38.72 30,45.48 C30,45.48 17.89,25.34 8,25.06 C-1.89,24.78 4.62,12.86 15.47,0.72 Z" id="Path"></path>
                    <path d="M15.47,0.72 C14.9876707,1.41210113 14.6071276,2.16981977 14.34,2.97 C4.72,14.27 -0.4,24.82 8.84,25.09 C17.46,25.33 27.79,40.73 30.27,44.62 C30.1895861,44.9229127 30.0893706,45.2202188 29.97,45.51 C29.97,45.51 17.86,25.37 7.97,25.09 C-1.92,24.81 4.62,12.86 15.47,0.72 Z" id="Path" opacity="0.1"></path>
                    <path d="M5.25,9.9 C5.25,12.43 5.54,14.48 5.89,14.48 C6.24,14.48 6.52,12.48 6.52,9.9 C6.52,7.32 6.17,8.56 5.82,8.56 C5.47,8.56 5.25,7.37 5.25,9.9 Z" id="Path"></path>
                    <path d="M1.76,12.92 C3.98,14.13 5.91,14.86 6.08,14.56 C6.25,14.26 4.58,13.02 2.36,11.81 C0.14,10.6 1.02,11.48 0.85,11.81 C0.68,12.14 -0.47,11.72 1.76,12.92 Z" id="Path"></path>
                    <path d="M7,44.6 C7,44.6 22.36,44.13 27,40.83 C31.64,37.53 50.63,33.6 51.77,38.89 C52.91,44.18 74.86,65.18 57.52,65.32 C40.18,65.46 17.22,62.62 12.6,59.8 C7.98,56.98 7,44.6 7,44.6 Z" id="Path"></path>
                    <path d="M57.82,63.48 C40.48,63.62 17.52,60.78 12.9,57.96 C9.39,55.82 7.98,48.13 7.51,44.58 L7,44.58 C7,44.58 8,56.97 12.59,59.78 C17.18,62.59 40.17,65.44 57.51,65.3 C62.51,65.3 64.24,63.48 64.15,60.84 C63.45,62.45 61.54,63.45 57.82,63.48 Z" id="Path" opacity="0.2"></path>
                </g>
            </g>
        </g>
    </g>
</svg>