<?xml version="1.0" encoding="UTF-8"?>
<svg width="14px" height="13px" viewBox="0 0 14 13" version="1.1" xmlns="http://www.w3.org/2000/svg" xmlns:xlink="http://www.w3.org/1999/xlink">
    <!-- Generator: Sketch 52.6 (67491) - http://www.bohemiancoding.com/sketch -->
    <title>leaf-1</title>
    <desc>Created with Sketch.</desc>
    <g id="Page-1" stroke="none" stroke-width="1" fill="none" fill-rule="evenodd">
        <g id="leaf-1" fill="#A8A8A8">
            <path d="M13.568338,0.0196881111 C13.568338,0.0196881111 -1.631662,-0.896311889 0.144338,9.76768811 C0.144338,9.76768811 -0.211662,11.6516881 1.496338,12.507688 C1.496338,12.507688 1.524338,11.7076881 3.056338,11.9836881 C3.6030304,12.0776004 4.1591384,12.1044655 4.712338,12.0636881 C5.4510716,12.0084048 6.1523584,11.7166695 6.712338,11.2316881 C6.712338,11.2316881 10.988338,9.46368811 12.652338,2.47168811 C12.652338,2.47168811 13.884338,0.947688111 13.852338,0.555688111 L11.276338,1.65168811 C11.276338,1.65168811 12.152338,3.50368811 11.464338,5.04368811 C11.464338,5.04368811 11.380338,1.71968811 10.884338,1.79568811 C10.784338,1.79568811 9.552338,2.43968811 9.552338,2.43968811 C9.552338,2.43968811 11.060338,5.66768811 9.920338,8.01168811 C9.920338,8.01168811 10.356338,4.03568811 9.080338,2.67168811 L7.276338,3.72768811 C7.276338,3.72768811 9.040338,7.05968811 7.844338,9.77968811 C7.844338,9.77968811 8.152338,5.60768811 6.896338,3.98368811 L5.260338,5.26368811 C5.260338,5.26368811 6.916338,8.54768811 5.904338,10.8036881 C5.904338,10.8036881 5.772338,5.94768811 4.904338,5.57968811 C4.904338,5.57968811 3.472338,6.84368811 3.252338,7.36368811 C3.252338,7.36368811 4.388338,9.76368811 3.684338,11.0076881 C3.684338,11.0076881 3.252338,7.77168811 2.884338,7.75568811 C2.884338,7.75568811 1.456338,9.89968811 1.308338,11.3556881 C1.3775856,9.99771867 1.8024372,8.68178231 2.540338,7.53968811 C1.7159808,7.69488535 0.9552476,8.08846391 0.352338,8.67168811 C0.352338,8.67168811 0.576338,7.15568811 2.892338,7.02368811 C2.892338,7.02368811 4.072338,5.39568811 4.388338,5.29968811 C4.388338,5.29968811 2.084338,5.10368811 0.684338,5.72368811 C0.684338,5.72368811 1.916338,4.29568811 4.808338,4.92368811 L6.408338,3.60368811 C6.408338,3.60368811 3.372338,3.20368811 2.088338,3.64768811 C2.088338,3.64768811 3.568338,2.38368811 6.840338,3.30368811 L8.604338,2.25168811 C8.604338,2.25168811 6.016338,1.69568811 4.476338,1.89568811 C4.476338,1.89568811 6.100338,1.01968811 9.120338,1.96768811 L10.376338,1.40368811 C10.376338,1.40368811 8.484338,1.03168811 7.928338,0.971688111 C7.372338,0.911688111 7.344338,0.759688111 7.344338,0.759688111 C8.5451932,0.562467751 9.777192,0.700894591 10.904338,1.15968811 C10.904338,1.15968811 13.616338,0.187688111 13.568338,0.0196881111 Z" id="Path-Copy"></path>
        </g>
    </g>
</svg>