<?xml version="1.0" encoding="iso-8859-1"?>
<!-- Generator: Adobe Illustrator 19.0.0, SVG Export Plug-In . SVG Version: 6.00 Build 0)  -->
<svg version="1.1" id="Layer_1" xmlns="http://www.w3.org/2000/svg" xmlns:xlink="http://www.w3.org/1999/xlink" x="0px" y="0px"
	 viewBox="0 0 512 512" style="enable-background:new 0 0 512 512;" xml:space="preserve">
<g>
	<path style="fill:#D6D5D8;" d="M68.386,188.213c-43.285,75.113-15.768,189.101,32.098,258.216
		C124.377,480.983,148.567,512,181.699,512c0.624,0,1.251-0.012,1.892-0.037c15.566-0.621,26.815-5.414,37.692-10.045
		c12.212-5.204,24.84-10.584,44.648-10.584c18.843,0,30.869,5.206,42.501,10.238c11.462,4.959,23.268,10.089,40.712,9.762
		c37.322-0.695,60.236-34.165,80.453-63.691c21.094-30.829,31.678-60.762,35.249-72.2l0.144-0.455
		c0.678-2.033-0.282-4.252-2.229-5.147c-0.055-0.025-0.252-0.107-0.309-0.131c-6.57-2.688-64.22-28.262-64.826-97.968
		c-0.564-56.632,43.246-86.622,52.033-92.058l0.41-0.255c0.953-0.613,1.617-1.585,1.84-2.696c0.227-1.11-0.01-2.265-0.646-3.198
		c-30.24-44.254-76.59-50.923-95.249-51.725c-2.708-0.27-5.504-0.406-8.311-0.406c-21.915,0-42.912,8.278-59.78,14.929
		c-11.643,4.591-21.699,8.556-28.637,8.556c-7.794,0-17.908-4.014-29.62-8.66c-15.662-6.216-33.414-13.26-52.207-13.26
		c-0.448,0-0.89,0.005-1.324,0.013C132.438,123.624,91.149,148.623,68.386,188.213z"/>
	<path style="fill:#D6D5D8;" d="M356.051,0.003c-26.463,1.078-58.203,17.366-77.178,39.589
		c-16.124,18.679-31.875,49.822-27.724,81.213c0.26,1.964,1.858,3.48,3.834,3.633c1.784,0.139,3.611,0.21,5.424,0.212
		c25.875,0,53.787-14.314,72.847-37.363c20.062-24.338,30.206-55.571,27.138-83.548C360.154,1.546,358.222-0.082,356.051,0.003z"/>
</g>
<g>
</g>
<g>
</g>
<g>
</g>
<g>
</g>
<g>
</g>
<g>
</g>
<g>
</g>
<g>
</g>
<g>
</g>
<g>
</g>
<g>
</g>
<g>
</g>
<g>
</g>
<g>
</g>
<g>
</g>
</svg>
