<svg xmlns="http://www.w3.org/2000/svg" xmlns:xlink="http://www.w3.org/1999/xlink" viewBox="0 0 800 1024">
  <defs>
    <style>
      .cls-1 {
        fill: url(#linear-gradient);
      }

      .cls-2 {
        fill: url(#linear-gradient-2);
      }

      .cls-3 {
        fill: url(#linear-gradient-3);
      }

      .cls-4 {
        fill: url(#linear-gradient-4);
      }

      .cls-5 {
        fill: url(#linear-gradient-5);
      }

      .cls-6 {
        fill: url(#linear-gradient-6);
      }

      .cls-7 {
        fill: url(#linear-gradient-7);
      }

      .cls-8 {
        fill: url(#linear-gradient-8);
      }

      .cls-9 {
        fill: url(#linear-gradient-9);
      }

      .cls-10 {
        fill: #fff;
      }

      .cls-11, .cls-14, .cls-17 {
        fill: #606060;
      }

      .cls-11, .cls-52 {
        opacity: 0.2;
      }

      .cls-12, .cls-13 {
        opacity: 0.8;
      }

      .cls-12 {
        fill: url(#linear-gradient-10);
      }

      .cls-13 {
        fill: url(#linear-gradient-11);
      }

      .cls-14, .cls-16 {
        opacity: 0.1;
      }

      .cls-15 {
        fill: url(#linear-gradient-13);
      }

      .cls-18 {
        fill: url(#linear-gradient-14);
      }

      .cls-19 {
        fill: url(#linear-gradient-15);
      }

      .cls-20 {
        fill: url(#linear-gradient-16);
      }

      .cls-21 {
        fill: url(#linear-gradient-17);
      }

      .cls-22 {
        fill: url(#linear-gradient-18);
      }

      .cls-23 {
        fill: url(#linear-gradient-19);
      }

      .cls-24 {
        fill: url(#linear-gradient-20);
      }

      .cls-25 {
        fill: url(#linear-gradient-21);
      }

      .cls-26 {
        fill: url(#linear-gradient-22);
      }

      .cls-27 {
        fill: url(#linear-gradient-23);
      }

      .cls-28 {
        fill: url(#linear-gradient-24);
      }

      .cls-29 {
        fill: url(#linear-gradient-25);
      }

      .cls-30 {
        fill: url(#linear-gradient-26);
      }

      .cls-31 {
        fill: url(#linear-gradient-27);
      }

      .cls-32 {
        fill: url(#linear-gradient-28);
      }

      .cls-33 {
        fill: url(#linear-gradient-29);
      }

      .cls-34 {
        fill: url(#linear-gradient-30);
      }

      .cls-35 {
        fill: url(#linear-gradient-31);
      }

      .cls-36 {
        fill: url(#linear-gradient-32);
      }

      .cls-37 {
        fill: url(#linear-gradient-33);
      }

      .cls-38 {
        fill: url(#linear-gradient-34);
      }

      .cls-39 {
        fill: url(#linear-gradient-35);
      }

      .cls-40 {
        fill: url(#linear-gradient-36);
      }

      .cls-41 {
        fill: url(#linear-gradient-37);
      }

      .cls-42 {
        fill: url(#linear-gradient-38);
      }

      .cls-43 {
        fill: url(#linear-gradient-39);
      }

      .cls-44 {
        fill: url(#linear-gradient-40);
      }

      .cls-45 {
        fill: url(#linear-gradient-41);
      }

      .cls-46 {
        fill: url(#linear-gradient-42);
      }

      .cls-47 {
        fill: url(#linear-gradient-43);
      }

      .cls-48 {
        fill: url(#linear-gradient-44);
      }

      .cls-49 {
        fill: url(#linear-gradient-45);
      }

      .cls-50, .cls-53, .cls-54, .cls-55, .cls-56, .cls-57, .cls-58, .cls-59, .cls-60 {
        fill: none;
        stroke-miterlimit: 10;
      }

      .cls-50 {
        stroke: #fff;
      }

      .cls-51 {
        fill: url(#linear-gradient-46);
      }

      .cls-53, .cls-54, .cls-55, .cls-56, .cls-57, .cls-58, .cls-59, .cls-60 {
        stroke-width: 0.5px;
      }

      .cls-53 {
        stroke: url(#linear-gradient-47);
      }

      .cls-54 {
        stroke: url(#linear-gradient-48);
      }

      .cls-55 {
        stroke: url(#linear-gradient-49);
      }

      .cls-56 {
        stroke: url(#linear-gradient-50);
      }

      .cls-57 {
        stroke: url(#linear-gradient-51);
      }

      .cls-58 {
        stroke: url(#linear-gradient-52);
      }

      .cls-59 {
        stroke: url(#linear-gradient-53);
      }

      .cls-60 {
        stroke: url(#linear-gradient-54);
      }

      .cls-61 {
        fill: url(#linear-gradient-55);
      }

      .cls-62 {
        fill: url(#linear-gradient-56);
      }

      .cls-63 {
        fill: url(#linear-gradient-57);
      }

      .cls-64 {
        fill: url(#linear-gradient-58);
      }

      .cls-65 {
        fill: url(#linear-gradient-59);
      }

      .cls-66 {
        fill: url(#linear-gradient-60);
      }

      .cls-67 {
        fill: url(#linear-gradient-61);
      }
    </style>
    <linearGradient id="linear-gradient" x1="794.4" y1="90.53" x2="222.27" y2="682.93" gradientUnits="userSpaceOnUse">
      <stop offset="0" stop-color="#ffcc7e"/>
      <stop offset="1" stop-color="#ff8444"/>
    </linearGradient>
    <linearGradient id="linear-gradient-2" x1="341.15" y1="119.22" x2="-83.71" y2="537.78" xlink:href="#linear-gradient"/>
    <linearGradient id="linear-gradient-3" x1="277.78" y1="111.91" x2="108.11" y2="390.95" gradientUnits="userSpaceOnUse">
      <stop offset="0" stop-color="#ffe6a0"/>
      <stop offset="1" stop-color="#ff8444"/>
    </linearGradient>
    <linearGradient id="linear-gradient-4" x1="544.94" y1="344.89" x2="820.86" y2="1068.69" xlink:href="#linear-gradient"/>
    <linearGradient id="linear-gradient-5" x1="633.17" y1="296.47" x2="1011.25" y2="595.79" xlink:href="#linear-gradient-3"/>
    <linearGradient id="linear-gradient-6" x1="580.43" y1="855.24" x2="617.6" y2="329.85" xlink:href="#linear-gradient"/>
    <linearGradient id="linear-gradient-7" x1="648.39" y1="374.72" x2="655.69" y2="617.95" xlink:href="#linear-gradient-3"/>
    <linearGradient id="linear-gradient-8" x1="271.29" y1="607.76" x2="508.29" y2="80.65" gradientUnits="userSpaceOnUse">
      <stop offset="0" stop-color="#fff"/>
      <stop offset="0.36" stop-color="#ffcc7e"/>
      <stop offset="1" stop-color="#ff5247"/>
    </linearGradient>
    <linearGradient id="linear-gradient-9" x1="-195.82" y1="186.29" x2="236.4" y2="349.74" gradientUnits="userSpaceOnUse">
      <stop offset="0" stop-color="#ffcc7e"/>
      <stop offset="1" stop-color="#ff5247"/>
    </linearGradient>
    <linearGradient id="linear-gradient-10" x1="381.31" y1="289.17" x2="404.16" y2="677.77" gradientUnits="userSpaceOnUse">
      <stop offset="0" stop-color="#fff"/>
      <stop offset="1" stop-color="#c2c0bf"/>
    </linearGradient>
    <linearGradient id="linear-gradient-11" x1="396.27" y1="268.7" x2="419.13" y2="657.3" xlink:href="#linear-gradient-10"/>
    <linearGradient id="linear-gradient-13" x1="234.14" y1="224.85" x2="865.96" y2="459.11" xlink:href="#linear-gradient-9"/>
    <linearGradient id="linear-gradient-14" x1="526.66" y1="314.75" x2="535.24" y2="460.62" xlink:href="#linear-gradient-9"/>
    <linearGradient id="linear-gradient-15" x1="390.05" y1="315.25" x2="398.54" y2="459.63" xlink:href="#linear-gradient-9"/>
    <linearGradient id="linear-gradient-16" x1="249.16" y1="315.03" x2="257.69" y2="459.98" xlink:href="#linear-gradient-9"/>
    <linearGradient id="linear-gradient-17" x1="236.94" y1="319.72" x2="435.85" y2="411.26" gradientTransform="matrix(1, 0, 0.19, 1, -71.34, 0)" xlink:href="#linear-gradient-10"/>
    <linearGradient id="linear-gradient-18" x1="229.53" y1="335.7" x2="428.44" y2="427.24" gradientTransform="matrix(1, 0, 0.19, 1, -71.34, 0)" xlink:href="#linear-gradient-10"/>
    <linearGradient id="linear-gradient-19" x1="216.61" y1="360.26" x2="336.5" y2="415.43" gradientTransform="matrix(1, 0, 0.19, 1, -71.34, 0)" xlink:href="#linear-gradient-10"/>
    <linearGradient id="linear-gradient-20" x1="688.14" y1="168.09" x2="665.97" y2="284.71" xlink:href="#linear-gradient-9"/>
    <linearGradient id="linear-gradient-21" x1="750.39" y1="180.54" x2="625.84" y2="279.14" xlink:href="#linear-gradient-9"/>
    <linearGradient id="linear-gradient-22" x1="416.05" y1="233.9" x2="494.3" y2="28.5" xlink:href="#linear-gradient-9"/>
    <linearGradient id="linear-gradient-23" x1="526.75" y1="156.85" x2="396.52" y2="218.04" xlink:href="#linear-gradient-9"/>
    <linearGradient id="linear-gradient-24" x1="86.25" y1="141.92" x2="151.45" y2="177.03" gradientTransform="matrix(1, 0, -0.06, 1, 11.3, 0)" xlink:href="#linear-gradient"/>
    <linearGradient id="linear-gradient-25" x1="58.22" y1="101.59" x2="153.44" y2="180.19" gradientTransform="matrix(0.51, 0.86, -0.89, 0.46, 200.24, -21.33)" xlink:href="#linear-gradient-9"/>
    <linearGradient id="linear-gradient-26" x1="484.17" y1="440.05" x2="494.01" y2="573.69" xlink:href="#linear-gradient-10"/>
    <linearGradient id="linear-gradient-27" x1="682" y1="426.06" x2="688.41" y2="480.79" gradientTransform="translate(75.92 159.53) rotate(7.79)" gradientUnits="userSpaceOnUse">
      <stop offset="0" stop-color="#ffa59e"/>
      <stop offset="1" stop-color="#fff"/>
    </linearGradient>
    <linearGradient id="linear-gradient-28" x1="680.85" y1="448.8" x2="740.38" y2="490.88" gradientTransform="translate(75.92 159.53) rotate(7.79)" gradientUnits="userSpaceOnUse">
      <stop offset="0" stop-color="#605e6c"/>
      <stop offset="1" stop-color="#181928"/>
    </linearGradient>
    <linearGradient id="linear-gradient-29" x1="551.27" y1="237.05" x2="585.92" y2="532.67" xlink:href="#linear-gradient-28"/>
    <linearGradient id="linear-gradient-30" x1="592.72" y1="514.39" x2="534.56" y2="699.11" gradientTransform="matrix(1, 0, 0, 1, 0, 0)" xlink:href="#linear-gradient-28"/>
    <linearGradient id="linear-gradient-31" x1="539.45" y1="594.62" x2="543.54" y2="626.69" xlink:href="#linear-gradient-27"/>
    <linearGradient id="linear-gradient-32" x1="576.99" y1="586.48" x2="536.96" y2="696.56" xlink:href="#linear-gradient-28"/>
    <linearGradient id="linear-gradient-33" x1="459.04" y1="306.31" x2="494.68" y2="585.46" xlink:href="#linear-gradient-28"/>
    <linearGradient id="linear-gradient-34" x1="565.03" y1="415.9" x2="443.4" y2="802.2" gradientTransform="matrix(1, 0, 0, 1, 0, 0)" xlink:href="#linear-gradient-28"/>
    <linearGradient id="linear-gradient-35" x1="346.8" y1="260.03" x2="103.53" y2="62.94" xlink:href="#linear-gradient-27"/>
    <linearGradient id="linear-gradient-36" x1="343.96" y1="891.54" x2="410.43" y2="763.03" gradientTransform="translate(-159.82 -351.12) rotate(-17.47)" xlink:href="#linear-gradient-27"/>
    <linearGradient id="linear-gradient-37" x1="537.52" y1="209.18" x2="573.84" y2="401.77" gradientTransform="matrix(1, 0, 0, 1, 0, 0)" xlink:href="#linear-gradient-28"/>
    <linearGradient id="linear-gradient-38" x1="543.3" y1="311.11" x2="815.29" y2="512.14" gradientTransform="matrix(1, 0, 0, 1, 0, 0)" xlink:href="#linear-gradient-28"/>
    <linearGradient id="linear-gradient-39" x1="537.3" y1="459.89" x2="668.97" y2="261.42" gradientTransform="matrix(1, 0, 0, 1, 0, 0)" xlink:href="#linear-gradient-27"/>
    <linearGradient id="linear-gradient-40" x1="530.77" y1="451.68" x2="592.34" y2="358.87" gradientTransform="matrix(1, 0, 0, 1, 0, 0)" xlink:href="#linear-gradient-27"/>
    <linearGradient id="linear-gradient-41" x1="547.56" y1="432.5" x2="478.86" y2="437.76" xlink:href="#linear-gradient-10"/>
    <linearGradient id="linear-gradient-42" x1="372.5" y1="487.78" x2="685.03" y2="475.11" xlink:href="#linear-gradient-10"/>
    <linearGradient id="linear-gradient-43" x1="527.49" y1="439.46" x2="367.85" y2="600.79" xlink:href="#linear-gradient-10"/>
    <linearGradient id="linear-gradient-44" x1="564.87" y1="630.43" x2="579.5" y2="799.01" xlink:href="#linear-gradient-28"/>
    <linearGradient id="linear-gradient-45" x1="581.13" y1="613.07" x2="549.82" y2="766" xlink:href="#linear-gradient-28"/>
    <linearGradient id="linear-gradient-46" x1="726.3" y1="448.34" x2="770.78" y2="576.98" xlink:href="#linear-gradient-28"/>
    <linearGradient id="linear-gradient-47" x1="405.59" y1="516.5" x2="567.03" y2="516.5" gradientTransform="matrix(1, 0, 0, 1, 0, 0)" xlink:href="#linear-gradient-28"/>
    <linearGradient id="linear-gradient-48" x1="409.82" y1="485.71" x2="531.85" y2="485.71" gradientTransform="matrix(1, 0, 0, 1, 0, 0)" xlink:href="#linear-gradient-28"/>
    <linearGradient id="linear-gradient-49" x1="412.76" y1="454.01" x2="509.2" y2="454.01" gradientTransform="matrix(1, 0, 0, 1, 0, 0)" xlink:href="#linear-gradient-28"/>
    <linearGradient id="linear-gradient-50" x1="444.05" y1="406.48" x2="493.26" y2="406.48" gradientTransform="matrix(1, 0, 0, 1, 0, 0)" xlink:href="#linear-gradient-28"/>
    <linearGradient id="linear-gradient-51" x1="411.53" y1="428.76" x2="444.94" y2="428.76" gradientTransform="matrix(1, 0, 0, 1, 0, 0)" xlink:href="#linear-gradient-28"/>
    <linearGradient id="linear-gradient-52" x1="389.95" y1="437.55" x2="411.43" y2="437.55" gradientTransform="matrix(1, 0, 0, 1, 0, 0)" xlink:href="#linear-gradient-28"/>
    <linearGradient id="linear-gradient-53" x1="372.37" y1="443.86" x2="382.57" y2="443.86" gradientTransform="matrix(1, 0, 0, 1, 0, 0)" xlink:href="#linear-gradient-28"/>
    <linearGradient id="linear-gradient-54" x1="462.22" y1="541.01" x2="524.13" y2="541.01" gradientTransform="matrix(1, 0, 0, 1, 0, 0)" xlink:href="#linear-gradient-28"/>
    <linearGradient id="linear-gradient-55" x1="478.19" y1="311.32" x2="402.73" y2="379.64" gradientTransform="matrix(1, 0, 0, 1, 0, 0)" xlink:href="#linear-gradient-28"/>
    <linearGradient id="linear-gradient-56" x1="629.1" y1="481.05" x2="580.95" y2="533.14" gradientTransform="translate(239.69 -202.65) rotate(22.89)" xlink:href="#linear-gradient-28"/>
    <linearGradient id="linear-gradient-57" x1="645.08" y1="462.91" x2="615.09" y2="496.98" gradientTransform="translate(239.88 -202.61) rotate(22.89)" xlink:href="#linear-gradient-28"/>
    <linearGradient id="linear-gradient-58" x1="467.38" y1="232.07" x2="505.08" y2="199.94" gradientTransform="matrix(1, 0, 0, 1, 0, 0)" xlink:href="#linear-gradient-27"/>
    <linearGradient id="linear-gradient-59" x1="492.59" y1="191.69" x2="488.18" y2="196.85" gradientTransform="matrix(1, 0, 0, 1, 0, 0)" xlink:href="#linear-gradient-28"/>
    <linearGradient id="linear-gradient-60" x1="451.59" y1="330.25" x2="363.74" y2="437.99" gradientTransform="matrix(1, 0, 0, 1, 0, 0)" xlink:href="#linear-gradient-28"/>
    <linearGradient id="linear-gradient-61" x1="388.18" y1="470.15" x2="245.15" y2="403.7" gradientTransform="matrix(1, 0, 0, 1, 0, 0)" xlink:href="#linear-gradient-27"/>
  </defs>
  <title>mhrafi448_1</title>
  <g id="Layer_1" data-name="Layer 1">
    <path class="cls-1" d="M124.58,0s-47.06,39.55,7.54,154.55c0,0-113.19,56.74-80.07,173.16C82.83,435.94,193.55,430,193.55,430S161,514,230,579s146.56,33,146.56,33,8.22,34,51.73,52c62.66,26,110.15-18,110.15-18S529.9,894,799.9,869V0Z"/>
    <path class="cls-2" d="M132.12,154.55S18.93,211.29,52.05,327.71c21.64,76.09,82.8,95.75,117.21,100.72L536.34,259.54s-144.45-15.41-159.27-52.16c-8.76-21.74-32-8.7-32-8.7C335.93,137.82,267,139.35,267,139.35,272.62,34.75,215.41,6.5,171.83,0H124.58S77.52,39.55,132.12,154.55Z"/>
    <path class="cls-3" d="M255.89,146.23s9.52-124.53-77.13-145c0,0,93.56,5.28,88.22,138.14,0,0,67.09-8.84,78.12,59.33,0,0,25-16.33,36.8,15.53,0,0-7.3-27.62-40.07-6.83C341.83,207.38,335.33,135.55,255.89,146.23Z"/>
    <path class="cls-4" d="M799.9,869V190.42c-48.22-36.38-114.79-27.9-147.76,17-46.66,63.48-16.26,136.71-16.26,136.71C531,348.34,541.8,462.2,541.8,462.2c-120.48,16.38-186.37,83.43-205.93,157.54,24.32-1,40.64-7.74,40.64-7.74s8.22,34,51.73,52c62.66,26,110.15-18,110.15-18S529.9,894,799.9,869Z"/>
    <path class="cls-5" d="M541.8,462.2s-22.71-102.39,78.48-123.14c0,0-30.12-109.12,42.28-156.76s137.34,8.12,137.34,8.12S720,147,662.56,201.51s0,154.7,0,154.7S552.83,347.31,541.8,462.2Z"/>
    <path class="cls-6" d="M799.9,429.5c-54.42,1.27-57.34,52-57.34,52S707.35,404.58,611,431.27,503.19,545.45,503.19,545.45q-6.35-.72-12.3-1c-72.48-3.91-102,34.23-113.82,69.45,2.43,7.31,13.72,34.59,51.17,50.13,62.66,26,110.15-18,110.15-18S529.9,894,799.9,869Z"/>
    <path class="cls-7" d="M503.19,545.45s7.07-90.14,92.27-119.81S732,453.93,732,453.93s17-43.36,67.95-39.69v28.64S745,449.52,742.56,512c0,0-28.84-86.92-139.2-64.61C510.29,466.19,503.19,545.45,503.19,545.45Z"/>
    <g>
      <g>
        <path class="cls-8" d="M628,543.09H158.36c-9.65,0-19.3-11.41-21.5-25.21L96,261.57c-1.35-8.44-2.59-18.4,8.7-24l385.66,8.87c7.36,0,16.62,6.74,20.75,15.18L643.35,518.74C645.51,530.4,641.3,543.09,628,543.09Z"/>
        <path class="cls-9" d="M634.55,532.61h-473c-9.66,0-19.3-11.41-21.5-25.21L99.19,251.09c-1.35-8.44,3.54-15.18,10.89-15.18H493.55c7.35,0,16.61,6.74,20.74,15.18L639.69,507.4C646.44,521.2,644.2,532.61,634.55,532.61Z"/>
        <path class="cls-10" d="M116,250.85c.5,2.81-1.09,5.09-3.56,5.09s-4.85-2.28-5.32-5.09,1.14-5,3.58-5S115.48,248.07,116,250.85Z"/>
        <path class="cls-10" d="M130.93,250.85c.54,2.81-1,5.09-3.48,5.09s-4.89-2.28-5.4-5.09,1.06-5,3.49-5S130.39,248.07,130.93,250.85Z"/>
        <path class="cls-10" d="M145.89,250.85c.58,2.81-.94,5.09-3.41,5.09s-4.92-2.28-5.47-5.09,1-5,3.41-5S145.31,248.07,145.89,250.85Z"/>
      </g>
      <path class="cls-11" d="M141.47,275.63l37.85,225.53A15.42,15.42,0,0,0,194.53,514H642.31a43.5,43.5,0,0,0-2.62-6.63L526.3,275.63Z"/>
      <path class="cls-12" d="M533.73,271.35H136.9a10.42,10.42,0,0,0-10.27,12.14l34.59,206.12a14.76,14.76,0,0,0,14.57,12.33H637.17A10.4,10.4,0,0,0,646.55,487l-99.5-207.3A14.78,14.78,0,0,0,533.73,271.35Z"/>
      <path class="cls-10" d="M126.63,283.49c5.1,28.34,10,56.72,15,85.08l14.71,85.13L160,475l1.82,10.65.45,2.66c.15.92.3,1.72.51,2.51a13.33,13.33,0,0,0,2.16,4.39,13.52,13.52,0,0,0,8.13,5.16,14.23,14.23,0,0,0,2.44.26c.85,0,1.79,0,2.67,0h5.4l21.6,0,86.39-.14,86.4.13c28.79.08,57.59,0,86.39.22l86.39.41c28.8.25,57.59.4,86.39.74-28.8.34-57.59.49-86.39.74l-86.39.41c-28.8.19-57.6.14-86.39.22l-86.4.13-86.39-.14-21.6,0h-5.4c-.91,0-1.77,0-2.72,0a15.92,15.92,0,0,1-2.92-.32,16.09,16.09,0,0,1-12.24-11.43c-.14-.47-.22-.95-.33-1.43s-.15-.9-.23-1.35l-.44-2.66-1.76-10.66-3.48-21.31-13.88-85.27C135.68,340.37,131.06,311.94,126.63,283.49Z"/>
      <path class="cls-13" d="M548.7,250.88H151.86A10.41,10.41,0,0,0,141.6,263l34.59,206.13a14.76,14.76,0,0,0,14.56,12.33H652.14a10.41,10.41,0,0,0,9.38-14.92L562,259.26A14.77,14.77,0,0,0,548.7,250.88Z"/>
      <path class="cls-13" d="M548.7,250.88H151.86A10.41,10.41,0,0,0,141.6,263l34.59,206.13a14.76,14.76,0,0,0,14.56,12.33H652.14a10.41,10.41,0,0,0,9.38-14.92L562,259.26A14.77,14.77,0,0,0,548.7,250.88Z"/>
      <path class="cls-14" d="M191.77,295.3H551.85a8.37,8.37,0,0,0,7.55-12l-2-4.1a13.3,13.3,0,0,0-12-7.54H188.14a9.37,9.37,0,0,0-9.25,10.92l.36,2.12A12.69,12.69,0,0,0,191.77,295.3Z"/>
      <path class="cls-15" d="M182.67,283.17H542.76a8.36,8.36,0,0,0,7.54-12l-2-4.1a13.29,13.29,0,0,0-12-7.54H179a9.36,9.36,0,0,0-9.24,10.92l.35,2.12A12.7,12.7,0,0,0,182.67,283.17Z"/>
      <path class="cls-10" d="M141.6,263c5.1,28.35,10,56.72,15,85.08l14.7,85.13L175,454.51l1.81,10.64.45,2.66a23.27,23.27,0,0,0,.52,2.52,13.43,13.43,0,0,0,2.16,4.39,13.57,13.57,0,0,0,8.12,5.16,14.45,14.45,0,0,0,2.45.26c.85,0,1.78,0,2.67,0h5.4l21.6,0,86.39-.13,86.39.13c28.8.07,57.6,0,86.39.21l86.4.42c28.79.25,57.59.4,86.39.74-28.8.34-57.6.48-86.39.73l-86.4.42c-28.79.18-57.59.14-86.39.21l-86.39.14-86.39-.14-21.6,0h-5.4c-.91,0-1.77,0-2.72,0a16.84,16.84,0,0,1-2.92-.32,16.13,16.13,0,0,1-9.68-6.19A15.88,15.88,0,0,1,175.3,471c-.15-.47-.22-1-.33-1.43s-.15-.9-.23-1.35l-.45-2.66-1.76-10.66-3.47-21.32-13.89-85.27C150.65,319.89,146,291.47,141.6,263Z"/>
      <g class="cls-16">
        <path class="cls-17" d="M607,393.46,574.56,326a13.65,13.65,0,0,0-12.31-7.75H466.86a8.09,8.09,0,0,0-7.75,10.43l19.71,65.4a19.76,19.76,0,0,0,18.91,14.05h100A10.22,10.22,0,0,0,607,393.46Z"/>
        <path class="cls-17" d="M464.54,395.09,447,333.38a20.87,20.87,0,0,0-20.07-15.15h-86.1a12.06,12.06,0,0,0-11.71,15l14.59,59.07A20.86,20.86,0,0,0,364,408.11h90.76A10.22,10.22,0,0,0,464.54,395.09Z"/>
        <path class="cls-17" d="M216.75,408.11H315.8a10.22,10.22,0,0,0,10-12.39l-13.22-61.05a20.86,20.86,0,0,0-20.38-16.44h-96.8a9.62,9.62,0,0,0-9.49,11.22l10.28,61.26A20.85,20.85,0,0,0,216.75,408.11Z"/>
      </g>
      <g>
        <path class="cls-18" d="M602.34,381.7,570,314.21a13.67,13.67,0,0,0-12.32-7.74H462.24a8.1,8.1,0,0,0-7.75,10.43l19.72,65.4a19.75,19.75,0,0,0,18.91,14.05h100A10.22,10.22,0,0,0,602.34,381.7Z"/>
        <path class="cls-19" d="M459.93,383.32l-17.56-61.7a20.85,20.85,0,0,0-20.06-15.15h-86.1a12.07,12.07,0,0,0-11.72,15l14.6,59.06a20.86,20.86,0,0,0,20.25,15.86h90.75A10.23,10.23,0,0,0,459.93,383.32Z"/>
        <path class="cls-20" d="M212.13,396.35h99.05a10.23,10.23,0,0,0,10-12.39l-13.22-61a20.86,20.86,0,0,0-20.39-16.44h-96.8a9.62,9.62,0,0,0-9.49,11.21l10.28,61.26A20.87,20.87,0,0,0,212.13,396.35Z"/>
        <g class="cls-16">
          <path class="cls-17" d="M298.51,338.93H207.85a5.77,5.77,0,0,1-5.41-4.55h0a3.66,3.66,0,0,1,3.69-4.55h90.65a5.77,5.77,0,0,1,5.42,4.55h0A3.67,3.67,0,0,1,298.51,338.93Z"/>
          <path class="cls-17" d="M302.6,358.5H212a5.76,5.76,0,0,1-5.42-4.55h0a3.67,3.67,0,0,1,3.69-4.55h90.66a5.76,5.76,0,0,1,5.41,4.55h0A3.65,3.65,0,0,1,302.6,358.5Z"/>
          <path class="cls-17" d="M267.31,380.08H216.65a5.75,5.75,0,0,1-5.41-4.55h0a3.66,3.66,0,0,1,3.69-4.55h50.65a5.77,5.77,0,0,1,5.42,4.55h0A3.66,3.66,0,0,1,267.31,380.08Z"/>
        </g>
        <g>
          <path class="cls-21" d="M294.41,333.62H203.76a5.77,5.77,0,0,1-5.42-4.55h0a3.67,3.67,0,0,1,3.69-4.55h90.66a5.76,5.76,0,0,1,5.41,4.55h0A3.66,3.66,0,0,1,294.41,333.62Z"/>
          <path class="cls-22" d="M298.51,353.19H207.85a5.76,5.76,0,0,1-5.41-4.55h0a3.66,3.66,0,0,1,3.69-4.55h90.65a5.77,5.77,0,0,1,5.42,4.55h0A3.66,3.66,0,0,1,298.51,353.19Z"/>
          <path class="cls-23" d="M263.21,374.77H212.55a5.76,5.76,0,0,1-5.41-4.55h0a3.66,3.66,0,0,1,3.69-4.55h50.66a5.77,5.77,0,0,1,5.41,4.55h0A3.66,3.66,0,0,1,263.21,374.77Z"/>
        </g>
      </g>
      <g>
        <path class="cls-24" d="M734,271.35H632.54c-11.49,0-25.07-9.25-30.34-20.67h0c-2-4.28-2.79-15.89-2.07-19.19,1.2-5.5,6.15-1.48,13.33-1.48H715c11.48,0,18.2,1.61,23.46,13l8.86,3.24C748.43,259.23,745.52,271.35,734,271.35Z"/>
        <path class="cls-25" d="M734,265.21H632.54c-11.49,0-25.07-10.74-30.34-24h0c-5.27-13.25-.22-24,11.26-24H715c11.48,0,25.07,10.74,30.33,24h0C750.56,254.47,745.52,265.21,734,265.21Z"/>
        <g>
          <path class="cls-10" d="M635,235.05h4a9.81,9.81,0,0,1,4.25.75,4.29,4.29,0,0,1,2.17,2.37,2.57,2.57,0,0,1,.18,1.82,1.3,1.3,0,0,1-1.09.85l0,.08a4.57,4.57,0,0,1,2.14,1,4.87,4.87,0,0,1,1.3,1.91,2.35,2.35,0,0,1-.22,2.63,4.11,4.11,0,0,1-3.06.94h-4.79Zm4.65,4.88h1.58a2.41,2.41,0,0,0,1.47-.32c.24-.22.26-.59.06-1.09a1.85,1.85,0,0,0-.94-1,4.54,4.54,0,0,0-1.83-.31h-1.42Zm.83,2.08,1.28,3.21h1.76a2,2,0,0,0,1.49-.41c.25-.28.26-.7,0-1.27q-.6-1.53-2.88-1.53Z"/>
          <path class="cls-10" d="M657.47,235.05l3.17,8a4.16,4.16,0,0,1,.32,2.4,2.3,2.3,0,0,1-1.21,1.57,5.27,5.27,0,0,1-2.61.55,7.6,7.6,0,0,1-4.32-1.22,7,7,0,0,1-2.69-3.33L647,235.05h2.71l3,7.55a4.75,4.75,0,0,0,1.42,2.09,3.53,3.53,0,0,0,2.24.67c.88,0,1.44-.23,1.66-.67a2.79,2.79,0,0,0-.24-2.11l-3-7.53Z"/>
          <path class="cls-10" d="M670.44,247.38h-2.71l-4-10.15h-3.47l-.87-2.18H669l.87,2.18H666.4Z"/>
          <path class="cls-10" d="M680.81,247.38H678.1l-4-10.15h-3.48l-.86-2.18h9.66l.86,2.18h-3.47Z"/>
          <path class="cls-10" d="M695.41,241.2q1.22,3.06.29,4.71c-.61,1.09-1.9,1.64-3.86,1.64a8.47,8.47,0,0,1-5.16-1.64,10.52,10.52,0,0,1-3.46-4.73q-1.22-3.08-.29-4.7c.63-1.08,1.92-1.62,3.89-1.62a8.46,8.46,0,0,1,5.16,1.63A10.48,10.48,0,0,1,695.41,241.2Zm-9.34,0a7.8,7.8,0,0,0,2,3.11,4.26,4.26,0,0,0,2.85,1.05q3.25,0,1.6-4.16T687.68,237c-1.08,0-1.75.35-2,1.05A4.6,4.6,0,0,0,686.07,241.2Z"/>
          <path class="cls-10" d="M711.86,247.38h-3.44l-9.27-9.33h-.08c.76,1.65,1.28,2.83,1.56,3.53l2.31,5.8h-2.42l-4.9-12.33H699l9.22,9.24h.06c-.72-1.61-1.21-2.74-1.48-3.4l-2.32-5.84H707Z"/>
        </g>
      </g>
      <g>
        <path class="cls-26" d="M456.39,218.57H406.63c-5.63,0-12.29-4.54-14.87-10.13h0c-1-2.1-1.38-7.8-1-9.41.59-2.7,3-.73,6.54-.73H447c5.63,0,8.92.79,11.5,6.39l4.34,1.58C463.45,212.63,462,218.57,456.39,218.57Z"/>
        <path class="cls-27" d="M456.39,215.56H406.63c-5.63,0-12.29-5.27-14.87-11.77h0c-2.59-6.49-.12-11.76,5.52-11.76H447c5.63,0,12.29,5.27,14.87,11.76h0C464.49,210.29,462,215.56,456.39,215.56Z"/>
      </g>
      <g>
        <path class="cls-28" d="M162.36,159.74c2.08,18.45-9.82,36-30.34,36S91.25,180.68,86.79,162c-.87-3.64-.76-13.49-.37-16.78,1.59-13.54,12.92-17,29.43-17C136.37,128.27,160.18,140.38,162.36,159.74Z"/>
        <ellipse class="cls-29" cx="124.39" cy="154.23" rx="31.3" ry="40.07" transform="translate(-71.57 183.53) rotate(-59.62)"/>
        <polygon class="cls-10" points="127.32 169.22 103.68 151.58 106.44 148.38 125.79 162.82 142.46 143.46 146.75 146.66 127.32 169.22"/>
      </g>
    </g>
    <g>
      <path class="cls-30" d="M421.66,589.42c-19.57-6.49-22.2-17.06-22.2-17.06s74.1-17.19,103.75-37.46,79.31-5.23,83,10.3C593.31,575.44,496.36,614.2,421.66,589.42Z"/>
      <polygon class="cls-31" points="679.03 684.6 712.04 693.18 708.08 722.17 674.52 717.58 679.03 684.6"/>
      <path class="cls-32" d="M702.34,687.78l35.78,4.9S755.29,778.29,753,783s-23.3,6.9-30.53-9.22-3.54-45.06-25.28-48Z"/>
      <path class="cls-33" d="M565.33,526.94s10,25.07,6.48,87.79l-2.11,37.53,120,26.4-7.42,50.45S576.9,710.57,550.92,710.72c-30.37.16-40.23-30.23-42.89-49.08-3-21.22-23-130.69-23-130.69Z"/>
      <path class="cls-34" d="M549,691.83c-32.26,2.88-15-19.21-13.35-63.81s-30-60.92-30-60.92l-12.87,6.56c6,33.19,13.5,75.6,15.25,88,2.66,18.85,12.52,49.24,42.89,49.08,10.64-.06,34.59,3,59.17,6.66C604.42,683.66,579,689.15,549,691.83Z"/>
      <polygon class="cls-35" points="543.45 821.89 551.42 844.99 527.12 857.93 507.92 827.91 543.45 821.89"/>
      <path class="cls-36" d="M550.36,839.76l15.25,26.1s-13.05,21.7-16.61,35.28-5.31,34.61-15.09,36.7-19.18-8-14.5-26.69C530.26,867.91,519,851,519,851Z"/>
      <path class="cls-37" d="M524.43,531.1s-2.18,33.58-3,41.06c-2.62,23.19-30.73,95.91-30.73,95.91L549,825.23s-16.61,6.54-40.62,15.16c0,0-74.21-137.37-80-161.21-9-37.29,7.85-154.43,7.85-154.43Z"/>
      <path class="cls-38" d="M508.33,840.39c4.85-1.74,9.39-3.39,13.55-4.93-11.21-14.27-41.85-56-34.55-76.82,8.89-25.38-5.51-39.84-28.57-45.75s-21.71-26.19,9.89-76-24.36-91.42-24.36-91.42l-11.9,9.17c-4.36,37.3-10.14,99.28-4,124.56C434.12,703,508.33,840.39,508.33,840.39Z"/>
      <path class="cls-39" d="M393.11,465s-24.55,28-35.66,33.51-39.57-2.33-40.05-32.9-1-89.83-2-97.59-10.37-20.42-11.06-26.71,9.59,9.41,9.59,9.41-7.68-15.83-6.15-19.43,14,18.6,14,18.6-6.33-25.65-.8-28.23,4.62,26.85,7.61,27.73,5-21.24,9.17-21.62-.6,27.09,1.94,27.44,6.88-8.6,12.15-5.49-9.29,14.93-8.92,19.75,12.23,76.38,12.23,76.38L369,433.08Z"/>
      <path class="cls-40" d="M468.65,398.46l-19.28-62.73-37.17,5.69s2.75,25.67,4.46,34.69,9.22,15.15,16,12.69l2,11.49Z"/>
      <polygon class="cls-41" points="508.38 215.18 635.88 483.6 604.53 497.24 492.89 219.68 508.38 215.18"/>
      <path class="cls-42" d="M508.38,215.18l-2.7.79c-.4,15.81,2.57,36.43,16.4,54.59,27,35.47,36.32,45.81,38.15,74.43,1.15,18,29.71,58.56,50.79,86.28Z"/>
      <path class="cls-43" d="M535.6,432.72l4.44,2.67s4.81-60.69,13.41-72.22,22.95-13.5,23.24-6.18c0,0,3.94,2.22,3.66,6.18,0,0,3.66,2.55,1.69,6.21,0,0,1.72,4.51.58,7s-13.25-.28-15.79,6.48,14.57,64.49,12.66,81c-1.27,10.9-9.54,24.34-35.45,16.46S505.75,462,505.75,462Z"/>
      <path class="cls-44" d="M555.31,442.88c12.91-5.32,6.38-19.72-6.36-34.77a26.7,26.7,0,0,1-4.81-8.9c-2.68,18.23-4.1,36.18-4.1,36.18l-4.44-2.67-16.51,16.21c5.19,6.28,24.66,29,22.71,13.27C539.56,444.09,542.39,448.21,555.31,442.88Z"/>
      <path class="cls-45" d="M501.78,408.11,549,435.39s-8.17,23.81-25.06,26.81Z"/>
      <path class="cls-46" d="M399.46,572.36s19.86-60.46,11.27-113.47l-14.07,18s-36.51-11.43-41.45-37.19c0,0,33.51-39.52,58.32-46.3s62.7,1,83.73,11.6,84,110.19,88.92,140.18c0,0-46.93-28-117.5,18C420,595,399.46,572.36,399.46,572.36Z"/>
      <path class="cls-47" d="M586.18,545.2c-4.88-30-67.89-129.54-88.92-140.18s-58.93-18.38-83.73-11.6a43,43,0,0,0-5.93,2.14c19.16-2.45,84.89-7.25,101.35,39.6,19.33,55-25.72,32.49-12.21,66.28,6.88,17.2,9.37,31.91,6.45,44C554.14,526.12,586.18,545.2,586.18,545.2Z"/>
      <path class="cls-48" d="M527.43,933.31c-4.77-9.29,8.9-20.89,10.5-37.59s5-36.78,21-33.39,11.74,26.47,2.85,36-9.91,25.75-12.57,31.26C545.38,937.45,532.21,942.59,527.43,933.31Z"/>
      <path class="cls-49" d="M530.69,932.36c-4.66-7.94,8.55-16.48,9.95-31.22s5.12-36,19.19-33,5.67,25.22-2.18,33.6-7.51,21.7-9.85,26.56C544.44,935.29,533.91,937.84,530.69,932.36Z"/>
      <line class="cls-50" x1="520.91" y1="900.52" x2="529.08" y2="898.53"/>
      <line class="cls-50" x1="521.77" y1="894.24" x2="529.94" y2="892.25"/>
      <line class="cls-50" x1="522.63" y1="887.96" x2="530.8" y2="885.97"/>
      <line class="cls-50" x1="523.49" y1="881.68" x2="531.66" y2="879.69"/>
      <line class="cls-50" x1="709.73" y1="744.15" x2="722.34" y2="737.2"/>
      <line class="cls-50" x1="711.97" y1="753.13" x2="724.57" y2="746.18"/>
      <line class="cls-50" x1="714.2" y1="762.11" x2="726.8" y2="755.16"/>
      <line class="cls-50" x1="716.43" y1="771.09" x2="729.04" y2="764.14"/>
      <path class="cls-51" d="M738.12,692.68l-6.17-.85,14.33,94.39c3.39-.49,6-1.72,6.68-3.2C755.29,778.29,738.12,692.68,738.12,692.68Z"/>
      <g class="cls-52">
        <path class="cls-53" d="M405.7,548.62s27.06,12.7,50.59-23.87c25.53-39.67,70.8-59.18,110.58-24.6"/>
        <path class="cls-54" d="M410,525.1s12.5,13.88,28.64-25,33.79-53.85,63.07-46,29.89-10.52,29.89-10.52"/>
        <path class="cls-55" d="M412.8,493.58s19.84,2.65,32.6-32.27,45.78-20.79,55.94-28.15c10.88-7.89,6.9-18.92,6.9-18.92"/>
        <path class="cls-56" d="M493,403s.44,17.37-19.45,18.5-29.27-30.29-29.27-30.29"/>
        <path class="cls-57" d="M428.66,390.87a35.22,35.22,0,0,0,12.61,30.68c15.39,12.73-26.06,29-29.49,45.08"/>
        <path class="cls-58" d="M402.59,469.31s-11.45-8,3.11-29-3.1-37.73-15.67-33.9"/>
        <path class="cls-59" d="M372.5,421.55s16.93,9.78,6.33,24.56-3.61,20.08-3.61,20.08"/>
        <path class="cls-60" d="M462.47,567.1s5.31-44.17,30.54-51,30.88,23.18,30.88,23.18"/>
      </g>
      <path class="cls-61" d="M420.66,359.92s-10.56,2.53-15.81-9.62c-6.61-15.3,1.26-28.5,6.42-30.73,0,0,0,8.82,9.3,5.41s23.29-10.32,28.62-.7c0,0,9.47-5,16.3,4.93,7.34,10.7,7.83,36.5-3.36,49.33-11.49,13.16-35,2.1-29.91-8.12,4.35-8.68-1.25-17.87-4.82-12.16-3,4.83-3.94,20.08-3.94,20.08Z"/>
      <ellipse class="cls-62" cx="620.28" cy="490.59" rx="17.09" ry="11.8" transform="translate(-141.98 279.92) rotate(-22.89)"/>
      <ellipse class="cls-63" cx="620.28" cy="491.08" rx="10.29" ry="7.1" transform="translate(-142.17 279.96) rotate(-22.89)"/>
      <path class="cls-64" d="M492.89,219.68l-4.45-29.51,19.94,25s1.8,3.79.84,5.07c-1.82,2.45-4.31-.28-4.31-.28s.92,3.35-1.55,4.36c-2.86,1.18-4.46-2.2-4.46-2.2a2.13,2.13,0,0,1-2,2.39C494.35,224.63,492.89,219.68,492.89,219.68Z"/>
      <path class="cls-65" d="M488.44,190.17l1.28,8.51a8.42,8.42,0,0,0,4-1.91Z"/>
      <path class="cls-66" d="M465.49,329.21c-6.83-9.95-16.3-4.93-16.3-4.93-5.33-9.62-19.34-2.72-28.62.7s-9.3-5.41-9.3-5.41a7.85,7.85,0,0,0-1.93,1.25c-1.66,5.1-2.25,12.43,6.12,15.81,13.52,5.44,16.9-16.71,26.1-4.51s15.62.38,21.77,3.6,9.43,34.21-4.57,37.27c-8.61,1.88-9.73,7.48-9.32,11.53a17.6,17.6,0,0,0,12.69-6C473.32,365.71,472.83,339.91,465.49,329.21Z"/>
      <path class="cls-67" d="M337.57,475.72c-24.78,6.38-18.4-21-16.16-54.17,1.06-15.55-1.85-27.56-5.24-35.93.54,21.91.89,58.21,1.23,80,.48,30.57,28.93,38.45,40.05,32.9,4.26-2.13,10.5-7.56,16.58-13.44C371,472.25,358.37,470.36,337.57,475.72Z"/>
    </g>
  </g>
</svg>
